<?xml version="1.0" encoding="UTF-8" standalone="no"?>
<svg
   xmlns:dc="http://purl.org/dc/elements/1.1/"
   xmlns:cc="http://creativecommons.org/ns#"
   xmlns:rdf="http://www.w3.org/1999/02/22-rdf-syntax-ns#"
   xmlns:svg="http://www.w3.org/2000/svg"
   xmlns="http://www.w3.org/2000/svg"
   xmlns:sodipodi="http://sodipodi.sourceforge.net/DTD/sodipodi-0.dtd"
   xmlns:inkscape="http://www.inkscape.org/namespaces/inkscape"
   version="1.1"
   id="svg2"
   xml:space="preserve"
   width="64"
   height="64"
   viewBox="0 0 63.999995 64"
   sodipodi:docname="OzlemLogo_64x64.svg"
   inkscape:version="1.0.1 (3bc2e813f5, 2020-09-07)"><metadata
     id="metadata8"><rdf:RDF><cc:Work
         rdf:about=""><dc:format>image/svg+xml</dc:format><dc:type
           rdf:resource="http://purl.org/dc/dcmitype/StillImage" /><dc:title></dc:title></cc:Work></rdf:RDF></metadata><defs
     id="defs6"><clipPath
       clipPathUnits="userSpaceOnUse"
       id="clipPath18"><path
         d="M 0,566.929 H 850.394 V 0 H 0 Z"
         id="path16" /></clipPath></defs><sodipodi:namedview
     pagecolor="#ffffff"
     bordercolor="#666666"
     borderopacity="1"
     objecttolerance="10"
     gridtolerance="10"
     guidetolerance="10"
     inkscape:pageopacity="0"
     inkscape:pageshadow="2"
     inkscape:window-width="1920"
     inkscape:window-height="1016"
     id="namedview4"
     showgrid="false"
     inkscape:zoom="3.0933625"
     inkscape:cx="129.79834"
     inkscape:cy="95.225017"
     inkscape:window-x="0"
     inkscape:window-y="27"
     inkscape:window-maximized="1"
     inkscape:current-layer="g10"
     inkscape:document-rotation="0" /><g
     id="g10"
     inkscape:groupmode="layer"
     inkscape:label="OzlemLogo"
     transform="matrix(1.3333333,0,0,-1.3333333,0,755.90533)"><g
       id="g1082"
       transform="matrix(0.47348486,0,0,0.47348486,-104.66284,414.26158)"><g
         id="g20"
         transform="translate(280.8184,269.7227)"><path
           d="m 0,0 c -21.492,4.388 -38.244,17.002 -46.592,25.846 -0.003,0.001 -5.168,5.164 -10.161,12.342 0,0 3.91,-8.133 8.596,-14.216 -3.596,-6.447 -5.734,-14.034 -5.734,-21.939 0,-24.75 20.058,-44.806 44.804,-44.806 23.878,0 43.392,18.677 44.728,42.226 C 25.486,-2.252 14.788,-3.021 0,0"
           style="fill:#1a3282;fill-opacity:1;fill-rule:nonzero;stroke:none"
           id="path22" /></g><g
         id="g24"
         transform="translate(271.7349,322.4336)"><path
           d="m 0,0 c -8.764,0 -17.008,-2.242 -24.202,-6.172 l 2.708,-2.949 c 6.439,3.351 13.749,5.25 21.494,5.25 25.812,0 46.813,-20.996 46.813,-46.807 C 46.813,-76.496 25.812,-97.5 0,-97.5 c -25.811,0 -46.814,21.004 -46.814,46.822 0,7.157 1.625,13.939 4.509,20.014 l -2.491,3.68 c -3.759,-7.079 -5.891,-15.147 -5.891,-23.694 0,-27.955 22.738,-50.695 50.687,-50.695 27.946,0 50.689,22.74 50.689,50.695 C 50.689,-22.736 27.946,0 0,0"
           style="fill:#0095da;fill-opacity:1;fill-rule:nonzero;stroke:none"
           id="path26" /></g><g
         id="g28"
         transform="translate(271.7314,316.5488)"><path
           d="m 0,0 c -8.389,0 -16.237,-2.309 -22.949,-6.318 0,0 -2.444,2.58 -3.474,3.732 -3.606,4.082 -6.265,7.953 -6.265,7.953 C -26.13,-7.859 -14.455,-23.066 4.822,-33.67 25.093,-44.822 44.803,-44.793 44.803,-44.793 44.803,-20.057 24.744,0 0,0"
           style="fill:#1a3282;fill-opacity:1;fill-rule:nonzero;stroke:none"
           id="path30" /></g><g
         id="g32"
         transform="translate(274.7891,271.207)"><path
           d="m 0,0 c -1.319,0.377 -2.622,0.773 -3.897,1.205 -15.315,-1.418 -29.543,-6.578 -41.762,-14.559 0.802,-2.462 1.82,-4.83 3.018,-7.085 C -30.679,-10.232 -16.077,-3.029 0,0"
           style="fill:#ffffff;fill-opacity:1;fill-rule:nonzero;stroke:none"
           id="path34" /></g><g
         id="g36"
         transform="translate(239.1426,256.1836)"><path
           d="M 0,0 C 0.002,0 0.003,0 0.005,0.002 0.003,0 0.002,0 0,0"
           style="fill:#1a3282;fill-opacity:1;fill-rule:nonzero;stroke:none"
           id="path38" /></g><g
         id="g40"
         transform="translate(241.561,257.8164)"><path
           d="M 0,0 C 0.017,0.014 0.035,0.023 0.053,0.037 0.035,0.023 0.017,0.014 0,0"
           style="fill:#1a3282;fill-opacity:1;fill-rule:nonzero;stroke:none"
           id="path42" /></g><g
         id="g44"
         transform="translate(234.3936,252.623)"><path
           d="M 0,0 C 0.016,0.014 0.03,0.025 0.044,0.037 0.03,0.025 0.016,0.014 0,0"
           style="fill:#1a3282;fill-opacity:1;fill-rule:nonzero;stroke:none"
           id="path46" /></g><g
         id="g48"
         transform="translate(257.3716,266.0937)"><path
           d="M 0,0 C 0.002,0 0.004,0 0.005,0.002 0.004,0 0.002,0 0,0"
           style="fill:#1a3282;fill-opacity:1;fill-rule:nonzero;stroke:none"
           id="path50" /></g><g
         id="g52"
         transform="translate(249.2368,262.3242)"><path
           d="M 0,0 C 0.013,0.008 0.025,0.014 0.037,0.021 0.025,0.014 0.013,0.008 0,0"
           style="fill:#1a3282;fill-opacity:1;fill-rule:nonzero;stroke:none"
           id="path54" /></g><g
         id="g56"
         transform="translate(229.1299,257.8535)"><path
           d="M 0,0 C 0.021,-0.064 0.046,-0.129 0.069,-0.195 0.046,-0.129 0.024,-0.064 0.002,0.002 0.002,0.002 0.001,0 0,0"
           style="fill:#1a3282;fill-opacity:1;fill-rule:nonzero;stroke:none"
           id="path58" /></g><g
         id="g60"
         transform="translate(274.7695,271.2051)"><path
           d="M 0,0 C 0.003,0 0.007,0 0.009,0.002 0.007,0.002 0.002,0 -0.001,0 Z"
           style="fill:#1a3282;fill-opacity:1;fill-rule:nonzero;stroke:none"
           id="path62" /></g><g
         id="g64"
         transform="translate(232.1553,250.7754)"><path
           d="M 0,0 V 0 C 0.735,0.626 1.482,1.244 2.238,1.848 1.482,1.244 0.735,0.626 0,0"
           style="fill:#1a3282;fill-opacity:1;fill-rule:nonzero;stroke:none"
           id="path66" /></g><g
         id="g68"
         transform="translate(234.438,252.6602)"><path
           d="M 0,0 C 1.529,1.223 3.098,2.396 4.705,3.523 3.098,2.396 1.529,1.223 0,0"
           style="fill:#1a3282;fill-opacity:1;fill-rule:nonzero;stroke:none"
           id="path70" /></g><g
         id="g72"
         transform="translate(241.6138,257.8535)"><path
           d="M 0,0 C 2.462,1.607 5.005,3.1 7.623,4.471 5.005,3.1 2.462,1.607 0,0"
           style="fill:#1a3282;fill-opacity:1;fill-rule:nonzero;stroke:none"
           id="path74" /></g><g
         id="g76"
         transform="translate(249.2739,262.3457)"><path
           d="M 0,0 C 2.627,1.375 5.33,2.627 8.098,3.748 5.33,2.627 2.627,1.375 0,0"
           style="fill:#1a3282;fill-opacity:1;fill-rule:nonzero;stroke:none"
           id="path78" /></g><g
         id="g80"
         transform="translate(257.3765,266.0957)"><path
           d="M 0,0 C 5.55,2.248 11.367,3.971 17.393,5.109 H 17.392 C 11.367,3.971 5.55,2.248 0,0"
           style="fill:#1a3282;fill-opacity:1;fill-rule:nonzero;stroke:none"
           id="path82" /></g><g
         id="g84"
         transform="translate(239.1475,256.1855)"><path
           d="M 0,0 C 0.795,0.555 1.6,1.1 2.414,1.631 1.6,1.1 0.795,0.555 0,0"
           style="fill:#1a3282;fill-opacity:1;fill-rule:nonzero;stroke:none"
           id="path86" /></g><g
         id="g88"
         transform="translate(232.1553,250.7754)"><path
           d="M 0,0 C -0.002,-0.002 -0.004,-0.006 -0.006,-0.008 -0.004,-0.006 -0.002,-0.002 0,0"
           style="fill:#1a3282;fill-opacity:1;fill-rule:nonzero;stroke:none"
           id="path90" /></g><g
         id="g92"
         transform="translate(257.3716,266.0937)"><path
           d="m 0,0 c -2.768,-1.121 -5.47,-2.373 -8.098,-3.748 -0.011,-0.008 -0.024,-0.014 -0.037,-0.022 -2.618,-1.371 -5.161,-2.863 -7.623,-4.47 -0.018,-0.014 -0.035,-0.024 -0.053,-0.037 -0.814,-0.532 -1.618,-1.077 -2.413,-1.631 -0.002,-0.002 -0.003,-0.002 -0.005,-0.002 -1.606,-1.127 -3.176,-2.301 -4.705,-3.524 -0.014,-0.011 -0.028,-0.023 -0.044,-0.037 -0.756,-0.603 -1.503,-1.221 -2.238,-1.847 4.718,-8.885 12.326,-16 21.587,-20.065 C 8.736,-17.309 27.364,-3.861 49.13,1.834 41.721,1.273 33.537,1.566 23.447,3.629 21.385,4.051 19.369,4.549 17.398,5.111 11.372,3.973 5.555,2.25 0.005,0.002 0.004,0 0.002,0 0,0"
           style="fill:#0095da;fill-opacity:1;fill-rule:nonzero;stroke:none"
           id="path94" /></g></g></g></svg>
