<?xml version="1.0" encoding="UTF-8" standalone="no"?>
<svg
   xmlns:dc="http://purl.org/dc/elements/1.1/"
   xmlns:cc="http://creativecommons.org/ns#"
   xmlns:rdf="http://www.w3.org/1999/02/22-rdf-syntax-ns#"
   xmlns:svg="http://www.w3.org/2000/svg"
   xmlns="http://www.w3.org/2000/svg"
   xmlns:sodipodi="http://sodipodi.sourceforge.net/DTD/sodipodi-0.dtd"
   xmlns:inkscape="http://www.inkscape.org/namespaces/inkscape"
   width="696"
   height="222"
   viewBox="0 0 184.15 58.737502"
   version="1.1"
   id="svg8"
   sodipodi:docname="busplan.svg"
   inkscape:version="1.0.1 (3bc2e813f5, 2020-09-07)">
  <defs
     id="defs2" />
  <sodipodi:namedview
     id="base"
     pagecolor="#ffffff"
     bordercolor="#666666"
     borderopacity="1.0"
     inkscape:pageopacity="0.0"
     inkscape:pageshadow="2"
     inkscape:zoom="1.2985463"
     inkscape:cx="409.81128"
     inkscape:cy="58.035819"
     inkscape:document-units="mm"
     inkscape:current-layer="layer1"
     inkscape:document-rotation="0"
     showgrid="false"
     units="px"
     inkscape:window-width="1920"
     inkscape:window-height="1016"
     inkscape:window-x="0"
     inkscape:window-y="27"
     inkscape:window-maximized="1" />
  <metadata
     id="metadata5">
    <rdf:RDF>
      <cc:Work
         rdf:about="">
        <dc:format>image/svg+xml</dc:format>
        <dc:type
           rdf:resource="http://purl.org/dc/dcmitype/StillImage" />
        <dc:title></dc:title>
      </cc:Work>
    </rdf:RDF>
  </metadata>
  <g
     inkscape:label="Katman 1"
     inkscape:groupmode="layer"
     id="layer1">
    <path
       id="path853"
       style="color:#000000;font-style:normal;font-variant:normal;font-weight:normal;font-stretch:normal;font-size:medium;line-height:normal;font-family:sans-serif;font-variant-ligatures:normal;font-variant-position:normal;font-variant-caps:normal;font-variant-numeric:normal;font-variant-alternates:normal;font-variant-east-asian:normal;font-feature-settings:normal;font-variation-settings:normal;text-indent:0;text-align:start;text-decoration:none;text-decoration-line:none;text-decoration-style:solid;text-decoration-color:#000000;letter-spacing:normal;word-spacing:normal;text-transform:none;writing-mode:lr-tb;direction:ltr;text-orientation:mixed;dominant-baseline:auto;baseline-shift:baseline;text-anchor:start;white-space:normal;shape-padding:0;shape-margin:0;inline-size:0;clip-rule:nonzero;display:inline;overflow:visible;visibility:visible;opacity:1;isolation:auto;mix-blend-mode:normal;color-interpolation:sRGB;color-interpolation-filters:linearRGB;solid-color:#000000;solid-opacity:1;vector-effect:none;fill:#c6c8c7;fill-opacity:1;fill-rule:nonzero;stroke:none;stroke-width:1.13386;stroke-linecap:butt;stroke-linejoin:miter;stroke-miterlimit:4;stroke-dasharray:none;stroke-dashoffset:0;stroke-opacity:1;color-rendering:auto;image-rendering:auto;shape-rendering:auto;text-rendering:auto;enable-background:accumulate;stop-color:#000000;stop-opacity:1"
       d="M 649.33203 5.9433594 C 646.92653 5.9459232 645.36133 5.9941406 645.36133 5.9941406 L 110.15234 5.9941406 L 110.13086 5.9941406 C 94.26737 6.8819139 74.06558 6.9460506 56.345703 8.8066406 C 47.485765 9.7369358 39.245872 11.11898 32.458984 13.287109 C 25.672097 15.455238 20.316374 18.409119 17.294922 22.587891 C 11.302305 30.875883 9.4403461 47.056985 8.9101562 64.251953 C 8.4423368 79.424138 9.0663156 95.363539 9.0742188 107.21484 L 9.0429688 107.21484 C 9.0554701 107.92612 9.0531137 108.72448 9.0585938 109.47656 C 9.0531142 110.22901 9.0554758 111.02863 9.0429688 111.74023 L 9.0742188 111.74023 C 9.066249 123.59135 8.4423621 139.53178 8.9101562 154.70312 C 9.4403461 171.89809 11.302305 188.07724 17.294922 196.36523 C 20.316374 200.54401 25.672097 203.49789 32.458984 205.66602 C 39.245872 207.83414 47.485765 209.21814 56.345703 210.14844 C 74.06558 212.00903 94.26737 212.07316 110.13086 212.96094 L 110.15234 212.96094 L 645.36133 212.96094 C 645.36133 212.96094 651.62022 213.15109 658.3457 212.79102 C 661.70846 212.61098 665.18633 212.29429 668.08398 211.74219 C 670.98163 211.19009 673.30712 210.47748 674.43164 209.13672 C 674.76828 208.73534 674.96698 208.17966 675.2207 207.34961 C 675.47442 206.51956 675.74238 205.44438 676.01953 204.13867 C 676.57387 201.52726 677.1647 198.00855 677.76172 193.85547 C 678.95571 185.54931 680.1495 174.69466 680.95703 163.47266 C 682.36641 143.88877 682.91326 123.67849 683.125 113.20117 L 683.25977 113.20117 C 683.25977 113.20117 683.2318 111.26721 683.20312 109.47656 C 683.23177 107.68769 683.25977 105.75391 683.25977 105.75391 L 683.125 105.75391 C 682.91326 95.276577 682.36641 75.066305 680.95703 55.482422 C 680.1495 44.260419 678.95571 33.403815 677.76172 25.097656 C 677.1647 20.944577 676.57387 17.427818 676.01953 14.816406 C 675.74238 13.5107 675.47442 12.433566 675.2207 11.603516 C 674.96698 10.773465 674.76828 10.219734 674.43164 9.8183594 C 673.30712 8.4776003 670.98163 7.7649893 668.08398 7.2128906 C 665.18633 6.6607924 661.70846 6.3441014 658.3457 6.1640625 C 654.98296 5.9840236 651.73754 5.9407955 649.33203 5.9433594 z M 649.34375 7.0820312 C 651.73259 7.0798597 654.95366 7.1223114 658.28711 7.3007812 C 661.62054 7.4792513 665.06566 7.7905263 667.87695 8.3261719 C 670.68828 8.8618175 672.85359 9.6981416 673.56055 10.541016 C 673.63349 10.628006 673.8988 11.157115 674.13672 11.935547 C 674.37468 12.713979 674.63141 13.765212 674.9043 15.050781 C 675.45006 17.62192 676.04404 21.125036 676.63867 25.261719 C 677.82798 33.535083 679.02258 44.369746 679.82812 55.564453 C 681.45644 78.190362 681.93804 101.41462 682.06641 109.47656 C 681.93811 117.53568 681.45663 140.76209 679.82812 163.39062 C 679.02258 174.58533 677.82798 185.42 676.63867 193.69336 C 676.04404 197.83004 675.45006 201.3312 674.9043 203.90234 C 674.63141 205.18791 674.37468 206.23914 674.13672 207.01758 C 673.8988 207.79601 673.63349 208.32512 673.56055 208.41211 C 672.85359 209.25498 670.68828 210.09131 667.87695 210.62695 C 665.06566 211.1626 661.62054 211.47583 658.28711 211.6543 C 651.62021 212.01124 645.39844 211.82422 645.39844 211.82422 L 645.39062 211.82422 L 110.16797 211.82422 L 110.19727 211.83008 C 102.14375 211.37938 92.995695 211.13727 83.638672 210.76953 L 95.5 169.6582 L 95.205078 124.72461 L 94.068359 124.73242 L 94.363281 169.50391 L 82.46875 210.71875 C 73.710033 210.3647 64.803879 209.89318 56.464844 209.01758 C 54.62893 208.82481 52.829252 208.60736 51.056641 208.37305 L 49.916016 201.02148 L 49.533203 200.97656 C 49.533203 200.97656 46.11667 200.57691 42.113281 199.56641 C 38.109892 198.5559 33.536703 196.89845 31.322266 194.5918 L 31.314453 194.58398 L 31.298828 194.56836 C 28.741246 192.15872 26.875833 187.60596 25.59375 181.70117 C 24.311667 175.79639 23.59449 168.55384 23.222656 160.78906 C 22.519266 146.10057 23.014308 122.69102 23.097656 108.81641 L 23.119141 108.81641 C 23.118274 108.44344 23.109141 107.93616 23.107422 107.55078 C 23.10914 107.15968 23.118274 106.5895 23.119141 106.2168 L 23.095703 106.2168 C 23.009991 92.730551 22.521473 72.884624 23.222656 58.242188 C 23.594489 50.477409 24.311667 43.234864 25.59375 37.330078 C 26.875833 31.425292 28.741246 26.872535 31.298828 24.462891 L 31.314453 24.449219 L 31.322266 24.441406 C 33.536701 22.134759 38.109892 20.477303 42.113281 19.466797 C 46.11667 18.456291 49.533203 18.056641 49.533203 18.056641 L 49.916016 18.011719 L 51.068359 10.578125 C 52.837216 10.34429 54.632981 10.127893 56.464844 9.9355469 C 74.098354 8.0840259 94.283436 8.013637 110.19727 7.1230469 L 110.16797 7.1308594 L 645.39062 7.1308594 L 645.39844 7.1308594 C 645.39844 7.1308594 646.95491 7.084203 649.34375 7.0820312 z M 50.033203 10.712891 L 49.037109 17.132812 C 48.7086 17.172603 45.735578 17.522109 41.869141 18.498047 C 37.804625 19.523982 33.136188 21.125042 30.619141 23.732422 C 27.78726 26.400498 25.91305 31.119995 24.611328 37.115234 C 23.309606 43.110474 22.599882 50.395571 22.226562 58.191406 C 21.500715 73.348931 22.051091 94.104157 22.111328 107.55078 C 22.051116 121.20771 21.500695 145.68387 22.226562 160.8418 C 22.599882 168.63763 23.309606 175.92077 24.611328 181.91602 C 25.91305 187.91126 27.78726 192.63075 30.619141 195.29883 C 33.136188 197.90621 37.804625 199.50727 41.869141 200.5332 C 45.735578 201.50914 48.7086 201.85865 49.037109 201.89844 L 50.021484 208.23828 C 43.676174 207.36136 37.813117 206.18983 32.804688 204.58984 C 26.138945 202.46042 21.005996 199.56683 18.210938 195.70117 C 12.570528 187.9003 10.575123 171.79799 10.046875 154.66602 C 9.5497604 138.54374 10.276887 121.56914 10.1875 109.47656 C 10.276887 97.383991 9.5497604 80.411341 10.046875 64.289062 C 10.575123 47.15709 12.570528 31.054783 18.210938 23.253906 C 21.005996 19.388243 26.138945 16.494663 32.804688 14.365234 C 37.81618 12.76427 43.683421 11.590535 50.033203 10.712891 z "
       transform="scale(0.26458333)" />
    <path
       style="fill:#c6c8c7;fill-opacity:1;stroke-width:0.0253162"
       d="m 20.837339,44.162545 c -0.0057,0.04873 -0.02268,0.19458 -0.03777,0.324104 -0.221387,1.900801 -1.397657,3.631857 -3.10611,4.571102 -0.636893,0.350139 -1.299759,0.570105 -2.081842,0.690839 -0.404215,0.0624 -1.266658,0.0624 -1.670873,0 -1.370541,-0.211577 -2.514506,-0.782254 -3.456619,-1.724367 -0.9421117,-0.942113 -1.5127897,-2.086078 -1.7243667,-3.456618 -0.06207,-0.402115 -0.06236,-1.265638 -5.31e-4,-1.670874 0.102615,-0.672657 0.289068,-1.26971 0.577015,-1.847691 0.9054627,-1.817494 2.5713637,-3.023665 4.6045007,-3.333826 0.405237,-0.06182 1.26876,-0.06155 1.670873,7.09e-4 1.370542,0.211578 2.514507,0.782253 3.456621,1.724367 0.935346,0.935346 1.515498,2.092869 1.719772,3.431303 0.03869,0.253471 0.07117,1.103801 0.04933,1.291129 z M 20.421124,43.19688 c -0.174949,-1.770496 -1.143858,-3.326313 -2.670276,-4.287772 -1.269761,-0.799795 -2.878857,-1.047109 -4.370505,-0.671737 -1.996881,0.502512 -3.5932967,2.098653 -4.0989797,4.09827 -0.128832,0.509438 -0.162027,0.795557 -0.162027,1.396526 0,0.600971 0.0332,0.88709 0.162027,1.396528 0.505683,1.999616 2.1020987,3.595756 4.0989797,4.098269 0.413654,0.104096 0.739,0.149765 1.193314,0.16751 2.77696,0.10846 5.238708,-1.848503 5.769387,-4.586365 0.09991,-0.515444 0.128353,-1.102437 0.07808,-1.611229 z m -0.407523,1.066929 c -0.206266,2.051144 -1.634041,3.825939 -3.591857,4.46486 -1.090298,0.355812 -2.200816,0.355812 -3.291114,0 C 11.150836,48.082575 9.7401863,46.312 9.5359603,44.216824 9.4047333,42.870553 9.8249553,41.49036 10.69326,40.415737 c 0.182062,-0.225319 0.641437,-0.676075 0.855104,-0.839057 0.817526,-0.623596 1.724919,-0.982184 2.743168,-1.084064 1.336231,-0.133693 2.755459,0.298264 3.807872,1.158965 1.366411,1.117503 2.090247,2.861573 1.914197,4.612228 z m -1.794403,-0.827088 c -0.772777,-0.04415 -1.463332,-0.08117 -1.534563,-0.08229 l -0.129512,-0.0021 0.02081,0.10759 c 0.01145,0.05918 0.02081,0.181643 0.02081,0.27215 0,0.0905 -0.0094,0.212973 -0.02081,0.27215 -0.01754,0.09068 -0.01439,0.107688 0.02009,0.108188 0.103367,0.0015 2.981381,-0.158182 3.010267,-0.167016 0.02407,-0.0074 0.03073,-0.06522 0.02531,-0.219249 l -0.0074,-0.209258 z m 1.297458,0.927604 c -0.03829,-3.9e-4 -0.749863,0.03599 -1.581271,0.08089 l -1.511654,0.08164 -0.126249,0.193832 c -0.136722,0.209918 -0.341248,0.412335 -0.555264,0.549544 -0.174387,0.111803 -0.275501,0.154836 -0.519227,0.220974 l -0.198761,0.05393 -0.570647,1.47387 c -0.313856,0.810628 -0.565704,1.478812 -0.559663,1.484853 0.04075,0.04075 0.456273,0.07548 0.894926,0.07481 0.524166,-8.15e-4 0.749123,-0.02724 1.189864,-0.139858 1.172197,-0.299507 2.203185,-1.039796 2.873824,-2.063521 0.291552,-0.44505 0.538759,-1.038092 0.669104,-1.605162 0.08356,-0.363524 0.08305,-0.404862 -0.005,-0.40581 z m 0.01995,-1.597717 c -0.0979,-0.467106 -0.210882,-0.793157 -0.419848,-1.21164 -0.847117,-1.696472 -2.619664,-2.749409 -4.505131,-2.676153 -0.362369,0.01407 -0.721514,0.06121 -0.721514,0.09469 0,0.01023 0.255258,0.677286 0.567238,1.482238 l 0.56724,1.463549 0.198578,0.05389 c 0.243542,0.06609 0.344686,0.109139 0.519045,0.220924 0.213918,0.137147 0.418524,0.339597 0.555042,0.549197 l 0.12603,0.193494 1.499217,0.08202 c 0.824568,0.04511 1.536237,0.08166 1.581492,0.08123 0.0997,-9.57e-4 0.100526,-0.0094 0.03261,-0.333445 z m -3.381635,0.639059 c -0.147304,-0.624907 -0.735955,-1.090462 -1.378788,-1.090462 -0.772884,0 -1.416962,0.644078 -1.416962,1.416962 0,0.772886 0.644078,1.416963 1.416962,1.416963 0.905753,0 1.58677,-0.861138 1.378788,-1.743463 z m -0.392678,0.564024 c -0.04024,0.160197 -0.175173,0.388184 -0.295247,0.498866 -0.06168,0.05686 -0.188246,0.139427 -0.281252,0.183489 -0.153132,0.07254 -0.191943,0.08012 -0.41092,0.08012 -0.228231,0 -0.252567,-0.0053 -0.433125,-0.09455 -0.230412,-0.113875 -0.373936,-0.260473 -0.485442,-0.495836 -0.07246,-0.152931 -0.08012,-0.192103 -0.08012,-0.409607 0,-0.217504 0.0076,-0.256677 0.08012,-0.409608 0.111506,-0.235363 0.25503,-0.38196 0.485442,-0.495836 0.180776,-0.08935 0.20469,-0.09455 0.434437,-0.09455 0.229747,0 0.253662,0.0052 0.434438,0.09455 0.34615,0.171077 0.549248,0.474997 0.567022,0.848501 0.0051,0.107895 -0.0017,0.24041 -0.01536,0.294466 z m -0.41754,-0.4432 c -0.07865,-0.223262 -0.331376,-0.401914 -0.568567,-0.401914 -0.31866,0 -0.60759,0.28893 -0.60759,0.60759 0,0.318661 0.28893,0.60759 0.60759,0.60759 0.151708,0 0.31255,-0.06981 0.42514,-0.184536 0.172073,-0.175329 0.223591,-0.401163 0.143427,-0.62873 z m -0.824403,2.003132 c -0.09831,0 -0.363032,-0.07888 -0.511297,-0.152341 -0.100569,-0.04983 -0.150117,-0.06323 -0.157134,-0.0425 -0.0057,0.01665 -0.182646,0.684038 -0.393353,1.483072 -0.306235,1.161294 -0.3763,1.457178 -0.349191,1.474659 0.04551,0.02934 0.358144,0.123822 0.37012,0.111847 0.022,-0.022 1.089845,-2.790077 1.091903,-2.830436 0.0015,-0.02889 -0.01629,-0.0443 -0.05105,-0.0443 z m -0.490079,-5.060898 c -0.298864,-0.77075 -0.547182,-1.405157 -0.55182,-1.409795 -0.01127,-0.01126 -0.325935,0.08507 -0.369443,0.113118 -0.02759,0.01778 0.04046,0.305272 0.349069,1.474659 0.210842,0.798909 0.388015,1.466189 0.39372,1.482845 0.0071,0.02076 0.05659,0.0074 0.157256,-0.0425 0.148265,-0.07347 0.412994,-0.15234 0.511297,-0.15234 0.02932,0 0.05331,-0.01454 0.05331,-0.03231 0,-0.01777 -0.244525,-0.662926 -0.543387,-1.433675 z m -0.573532,4.514193 c -0.09963,-0.08958 -0.280628,-0.365238 -0.352189,-0.536369 -0.145983,-0.349104 -0.183691,-0.71079 -0.110865,-1.063369 0.06992,-0.338525 0.211195,-0.622792 0.429701,-0.86465 l 0.08864,-0.09811 -0.402846,-1.522501 c -0.221565,-0.837376 -0.408757,-1.528414 -0.415982,-1.535639 -0.02117,-0.02117 -0.315261,0.135859 -0.576682,0.307903 -0.758592,0.499235 -1.345008,1.1735 -1.733058,1.99268 -1.0333337,2.181388 -0.29538,4.796329 1.72966,6.129058 0.264597,0.174137 0.558819,0.331403 0.580132,0.31009 0.01314,-0.01314 0.810258,-2.990394 0.814758,-3.04314 0.0013,-0.01525 -0.02177,-0.04942 -0.05126,-0.07595 z"
       id="path918" />
    <path
       style="color:#000000;font-style:normal;font-variant:normal;font-weight:normal;font-stretch:normal;font-size:medium;line-height:normal;font-family:sans-serif;font-variant-ligatures:normal;font-variant-position:normal;font-variant-caps:normal;font-variant-numeric:normal;font-variant-alternates:normal;font-variant-east-asian:normal;font-feature-settings:normal;font-variation-settings:normal;text-indent:0;text-align:start;text-decoration:none;text-decoration-line:none;text-decoration-style:solid;text-decoration-color:#000000;letter-spacing:normal;word-spacing:normal;text-transform:none;writing-mode:lr-tb;direction:ltr;text-orientation:mixed;dominant-baseline:auto;baseline-shift:baseline;text-anchor:start;white-space:normal;shape-padding:0;shape-margin:0;inline-size:0;clip-rule:nonzero;display:inline;overflow:visible;visibility:visible;isolation:auto;mix-blend-mode:normal;color-interpolation:sRGB;color-interpolation-filters:linearRGB;solid-color:#000000;solid-opacity:1;vector-effect:none;fill:#c6c8c7;fill-opacity:1;fill-rule:nonzero;stroke:none;stroke-width:0.3;stroke-linecap:butt;stroke-linejoin:miter;stroke-miterlimit:4;stroke-dasharray:none;stroke-dashoffset:0;stroke-opacity:1;color-rendering:auto;image-rendering:auto;shape-rendering:auto;text-rendering:auto;enable-background:accumulate;stop-color:#000000;stop-opacity:1;opacity:1"
       d="M 29.052734 1.7773438 L 27.388672 3.3867188 L 15.699219 3.9101562 L 15.259766 2.2714844 L 14.970703 2.3496094 L 15.472656 4.2207031 L 27.515625 3.6816406 L 29.259766 1.9921875 L 29.052734 1.7773438 z "
       id="path931" />
    <rect
       style="fill:#e3e5e4;fill-opacity:1;stroke-width:0.33111;stroke-miterlimit:4;stroke-dasharray:none"
       id="rect933"
       width="128.31886"
       height="9.260417"
       x="32.470444"
       y="23.944792" />
    <rect
       style="fill:#e3e5e4;fill-opacity:1;stroke-width:0.0648594;stroke-miterlimit:4;stroke-dasharray:none"
       id="rect979"
       width="13.624341"
       height="3.3466144"
       x="13.94961"
       y="6.2177086" />
    <rect
       style="fill:#e3e5e4;fill-opacity:1;stroke-width:0.0689108;stroke-miterlimit:4;stroke-dasharray:none"
       id="rect981"
       width="15.379555"
       height="3.3466144"
       x="12.194396"
       y="11.509376" />
    <rect
       style="fill:#e3e5e4;fill-opacity:1;stroke-width:0.0710223;stroke-miterlimit:4;stroke-dasharray:none"
       id="rect983"
       width="16.3365"
       height="3.3466144"
       x="11.237452"
       y="16.801043" />
  </g>
</svg>
