<?xml version="1.0" encoding="UTF-8" standalone="no"?>
<svg
   xmlns:dc="http://purl.org/dc/elements/1.1/"
   xmlns:cc="http://creativecommons.org/ns#"
   xmlns:rdf="http://www.w3.org/1999/02/22-rdf-syntax-ns#"
   xmlns:svg="http://www.w3.org/2000/svg"
   xmlns="http://www.w3.org/2000/svg"
   xmlns:sodipodi="http://sodipodi.sourceforge.net/DTD/sodipodi-0.dtd"
   xmlns:inkscape="http://www.inkscape.org/namespaces/inkscape"
   version="1.1"
   id="Capa_1"
   x="0px"
   y="0px"
   viewBox="0 0 20.766 20.766"
   style="enable-background:new 0 0 20.766 20.766;"
   xml:space="preserve"
   sodipodi:docname="Catering.svg"
   inkscape:version="1.0.1 (3bc2e813f5, 2020-09-07)"><metadata
   id="metadata47"><rdf:RDF><cc:Work
       rdf:about=""><dc:format>image/svg+xml</dc:format><dc:type
         rdf:resource="http://purl.org/dc/dcmitype/StillImage" /><dc:title /></cc:Work></rdf:RDF></metadata><defs
   id="defs45" /><sodipodi:namedview
   pagecolor="#ffffff"
   bordercolor="#666666"
   borderopacity="1"
   objecttolerance="10"
   gridtolerance="10"
   guidetolerance="10"
   inkscape:pageopacity="0"
   inkscape:pageshadow="2"
   inkscape:window-width="1920"
   inkscape:window-height="1016"
   id="namedview43"
   showgrid="false"
   inkscape:zoom="9.931369"
   inkscape:cx="27.909261"
   inkscape:cy="7.5685129"
   inkscape:window-x="0"
   inkscape:window-y="27"
   inkscape:window-maximized="1"
   inkscape:current-layer="Capa_1"
   inkscape:document-rotation="0" />

<g
   id="g12">
</g>
<g
   id="g14">
</g>
<g
   id="g16">
</g>
<g
   id="g18">
</g>
<g
   id="g20">
</g>
<g
   id="g22">
</g>
<g
   id="g24">
</g>
<g
   id="g26">
</g>
<g
   id="g28">
</g>
<g
   id="g30">
</g>
<g
   id="g32">
</g>
<g
   id="g34">
</g>
<g
   id="g36">
</g>
<g
   id="g38">
</g>
<g
   id="g40">
</g>
<path
   id="path862"
   style="color:#000000;font-style:normal;font-variant:normal;font-weight:normal;font-stretch:normal;font-size:medium;line-height:normal;font-family:sans-serif;font-variant-ligatures:normal;font-variant-position:normal;font-variant-caps:normal;font-variant-numeric:normal;font-variant-alternates:normal;font-variant-east-asian:normal;font-feature-settings:normal;font-variation-settings:normal;text-indent:0;text-align:start;text-decoration:none;text-decoration-line:none;text-decoration-style:solid;text-decoration-color:#000000;letter-spacing:normal;word-spacing:normal;text-transform:none;writing-mode:lr-tb;direction:ltr;text-orientation:mixed;dominant-baseline:auto;baseline-shift:baseline;text-anchor:start;white-space:normal;shape-padding:0;shape-margin:0;inline-size:0;clip-rule:nonzero;display:inline;overflow:visible;visibility:visible;isolation:auto;mix-blend-mode:normal;color-interpolation:sRGB;color-interpolation-filters:linearRGB;solid-color:#000000;solid-opacity:1;vector-effect:none;fill:#1a3282;fill-opacity:1;fill-rule:nonzero;stroke:none;stroke-width:1px;stroke-linecap:round;stroke-linejoin:miter;stroke-miterlimit:4;stroke-dasharray:none;stroke-dashoffset:0;stroke-opacity:1;color-rendering:auto;image-rendering:auto;shape-rendering:auto;text-rendering:auto;enable-background:accumulate;stop-color:#000000;stop-opacity:1;opacity:1"
   d="M 7.3710938 0.82226562 A 0.5 0.5 0 0 0 7.0878906 0.9375 A 0.5 0.5 0 0 0 7.0234375 1.6425781 C 7.0234375 1.6425781 7.2691383 1.9384784 7.5078125 2.3261719 C 7.7464867 2.7138653 7.9310532 3.208304 7.9199219 3.3847656 C 7.9108147 3.5291399 7.6903231 3.8241858 7.3476562 4.1679688 C 7.0049895 4.5117516 6.5269176 4.9033335 6.5117188 5.5742188 C 6.4979161 6.1834746 6.8271268 6.6605539 7.109375 7.03125 C 7.3916232 7.4019461 7.6757812 7.6640625 7.6757812 7.6640625 A 0.5 0.5 0 0 0 8.3828125 7.6386719 A 0.5 0.5 0 0 0 8.3574219 6.9316406 C 8.3574219 6.9316406 8.1311879 6.7192546 7.90625 6.4238281 C 7.6813121 6.1284017 7.5082623 5.7482679 7.5117188 5.5957031 C 7.5137789 5.5047675 7.7121963 5.2205663 8.0566406 4.875 C 8.401085 4.5294337 8.8755365 4.1218867 8.9179688 3.4492188 C 8.9583769 2.808638 8.6397245 2.2561705 8.359375 1.8007812 C 8.0790255 1.3453921 7.7910156 1.0019531 7.7910156 1.0019531 A 0.5 0.5 0 0 0 7.4296875 0.82226562 A 0.5 0.5 0 0 0 7.3710938 0.82226562 z M 9.7832031 0.82226562 A 0.5 0.5 0 0 0 9.5 0.9375 A 0.5 0.5 0 0 0 9.4355469 1.6425781 C 9.4355469 1.6425781 9.6812478 1.9384785 9.9199219 2.3261719 C 10.158596 2.7138653 10.345116 3.2083041 10.333984 3.3847656 C 10.324877 3.5291401 10.104385 3.8241859 9.7617188 4.1679688 C 9.4190523 4.5117516 8.9390279 4.9033341 8.9238281 5.5742188 C 8.9100255 6.1834746 9.2392362 6.6605539 9.5214844 7.03125 C 9.8037326 7.4019461 10.089844 7.6640625 10.089844 7.6640625 A 0.5 0.5 0 0 0 10.794922 7.6386719 A 0.5 0.5 0 0 0 10.769531 6.9316406 C 10.769531 6.9316406 10.543297 6.7192546 10.318359 6.4238281 C 10.093421 6.1284017 9.9203718 5.7482679 9.9238281 5.5957031 C 9.9258884 5.5047671 10.124306 5.2205664 10.46875 4.875 C 10.813194 4.5294336 11.289599 4.1218865 11.332031 3.4492188 C 11.37244 2.808638 11.051834 2.2561705 10.771484 1.8007812 C 10.491135 1.3453921 10.205078 1.0019531 10.205078 1.0019531 A 0.5 0.5 0 0 0 9.8417969 0.82226562 A 0.5 0.5 0 0 0 9.7832031 0.82226562 z M 12.378906 0.82226562 A 0.5 0.5 0 0 0 12.09375 0.9375 A 0.5 0.5 0 0 0 12.03125 1.6425781 C 12.03125 1.6425781 12.274998 1.9384785 12.513672 2.3261719 C 12.752346 2.7138653 12.938866 3.2083041 12.927734 3.3847656 C 12.918627 3.52914 12.698135 3.8241858 12.355469 4.1679688 C 12.012802 4.5117516 11.532778 4.9033341 11.517578 5.5742188 C 11.503775 6.1834748 11.834939 6.6605539 12.117188 7.03125 C 12.399435 7.4019461 12.683594 7.6640625 12.683594 7.6640625 A 0.5 0.5 0 0 0 13.390625 7.6386719 A 0.5 0.5 0 0 0 13.365234 6.9316406 C 13.365234 6.9316406 13.137047 6.7192546 12.912109 6.4238281 C 12.687171 6.1284017 12.514122 5.7482678 12.517578 5.5957031 C 12.519638 5.5047671 12.720009 5.2205664 13.064453 4.875 C 13.408897 4.5294336 13.883349 4.1218867 13.925781 3.4492188 C 13.96619 2.808638 13.645584 2.2561705 13.365234 1.8007812 C 13.084885 1.3453921 12.798828 1.0019531 12.798828 1.0019531 A 0.5 0.5 0 0 0 12.4375 0.82226562 A 0.5 0.5 0 0 0 12.378906 0.82226562 z M 10.386719 8.6386719 C 9.8848139 8.6386719 9.4541832 8.8294611 9.1601562 9.1074219 C 8.8661295 9.3853826 8.6993725 9.7273324 8.5957031 10.044922 C 8.4948429 10.353906 8.4505708 10.65131 8.4316406 10.878906 C 5.5300875 11.445766 3.8313167 13.290374 2.9257812 15.107422 C 2.104059 16.75629 1.8753714 18.395477 1.8125 19.107422 L 1.046875 19.107422 A 0.5 0.5 0 0 0 0.546875 19.607422 A 0.5 0.5 0 0 0 1.046875 20.107422 L 19.775391 20.107422 A 0.5 0.5 0 0 0 20.275391 19.607422 A 0.5 0.5 0 0 0 19.775391 19.107422 L 18.886719 19.107422 C 18.814776 18.345256 18.585443 16.79442 17.806641 15.203125 C 16.916204 13.383734 15.248537 11.526512 12.394531 10.912109 C 12.370424 10.679851 12.319286 10.369999 12.205078 10.044922 C 12.093147 9.7263256 11.919135 9.3845829 11.621094 9.1074219 C 11.323052 8.8302608 10.889782 8.6386719 10.386719 8.6386719 z M 10.386719 9.6386719 C 10.659583 9.6386719 10.805327 9.7151143 10.939453 9.8398438 C 11.073579 9.9645731 11.18539 10.159695 11.261719 10.376953 C 11.308381 10.509771 11.321041 10.627476 11.34375 10.751953 C 11.031525 10.721461 10.712149 10.700817 10.375 10.699219 C 10.062087 10.697735 9.7641838 10.712778 9.4726562 10.736328 C 9.4918279 10.610551 9.5030189 10.489821 9.546875 10.355469 C 9.616361 10.142599 9.7188906 9.9538676 9.8457031 9.8339844 C 9.9725156 9.7141011 10.112696 9.6386719 10.386719 9.6386719 z M 10.371094 11.699219 C 14.13705 11.717074 15.935975 13.656065 16.908203 15.642578 C 17.590146 17.035961 17.806741 18.396238 17.880859 19.107422 L 2.8203125 19.107422 C 2.8865527 18.437788 3.1032805 16.997403 3.8222656 15.554688 C 4.8008137 13.591131 6.604069 11.681357 10.371094 11.699219 z M 7.9726562 13.517578 A 0.5 0.5 0 0 0 7.734375 13.589844 C 7.734375 13.589844 6.6564435 14.218149 6.0898438 14.779297 C 5.5217564 15.341918 4.8691406 16.433594 4.8691406 16.433594 A 0.5 0.5 0 0 0 5.0292969 17.123047 A 0.5 0.5 0 0 0 5.71875 16.960938 C 5.71875 16.960938 6.4488197 15.831072 6.7929688 15.490234 C 7.1386054 15.147924 8.2539064 14.445313 8.2539062 14.445312 A 0.5 0.5 0 0 0 8.421875 13.757812 A 0.5 0.5 0 0 0 7.9726562 13.517578 z " /></svg>
