<?xml version="1.0" encoding="UTF-8" standalone="no"?>
<svg
   xmlns:dc="http://purl.org/dc/elements/1.1/"
   xmlns:cc="http://creativecommons.org/ns#"
   xmlns:rdf="http://www.w3.org/1999/02/22-rdf-syntax-ns#"
   xmlns:svg="http://www.w3.org/2000/svg"
   xmlns="http://www.w3.org/2000/svg"
   xmlns:sodipodi="http://sodipodi.sourceforge.net/DTD/sodipodi-0.dtd"
   xmlns:inkscape="http://www.inkscape.org/namespaces/inkscape"
   version="1.1"
   id="Capa_1"
   x="0px"
   y="0px"
   viewBox="0 0 20.766 20.766"
   xml:space="preserve"
   sodipodi:docname="ComfortSeats.svg"
   width="20.766001"
   height="20.766001"
   inkscape:version="1.0.1 (3bc2e813f5, 2020-09-07)"><metadata
   id="metadata47"><rdf:RDF><cc:Work
       rdf:about=""><dc:format>image/svg+xml</dc:format><dc:type
         rdf:resource="http://purl.org/dc/dcmitype/StillImage" /><dc:title /></cc:Work></rdf:RDF></metadata><defs
   id="defs45" /><sodipodi:namedview
   pagecolor="#ffffff"
   bordercolor="#666666"
   borderopacity="1"
   objecttolerance="10"
   gridtolerance="10"
   guidetolerance="10"
   inkscape:pageopacity="0"
   inkscape:pageshadow="2"
   inkscape:window-width="1920"
   inkscape:window-height="1016"
   id="namedview43"
   showgrid="false"
   inkscape:zoom="17.001539"
   inkscape:cx="19.934541"
   inkscape:cy="15.535581"
   inkscape:window-x="0"
   inkscape:window-y="27"
   inkscape:window-maximized="1"
   inkscape:current-layer="Capa_1"
   inkscape:document-rotation="0" />

<g
   id="g12">
</g>
<g
   id="g14">
</g>
<g
   id="g16">
</g>
<g
   id="g18">
</g>
<g
   id="g20">
</g>
<g
   id="g22">
</g>
<g
   id="g24">
</g>
<g
   id="g26">
</g>
<g
   id="g28">
</g>
<g
   id="g30">
</g>
<g
   id="g32">
</g>
<g
   id="g34">
</g>
<g
   id="g36">
</g>
<g
   id="g38">
</g>
<g
   id="g40">
</g>
<path
   id="path859"
   style="color:#000000;font-style:normal;font-variant:normal;font-weight:normal;font-stretch:normal;font-size:medium;line-height:normal;font-family:sans-serif;font-variant-ligatures:normal;font-variant-position:normal;font-variant-caps:normal;font-variant-numeric:normal;font-variant-alternates:normal;font-variant-east-asian:normal;font-feature-settings:normal;font-variation-settings:normal;text-indent:0;text-align:start;text-decoration:none;text-decoration-line:none;text-decoration-style:solid;text-decoration-color:#000000;letter-spacing:normal;word-spacing:normal;text-transform:none;writing-mode:lr-tb;direction:ltr;text-orientation:mixed;dominant-baseline:auto;baseline-shift:baseline;text-anchor:start;white-space:normal;shape-padding:0;shape-margin:0;inline-size:0;clip-rule:nonzero;display:inline;overflow:visible;visibility:visible;opacity:1;isolation:auto;mix-blend-mode:normal;color-interpolation:sRGB;color-interpolation-filters:linearRGB;solid-color:#000000;solid-opacity:1;vector-effect:none;fill:#1a3282;fill-opacity:1;fill-rule:nonzero;stroke:none;stroke-width:1.00003px;stroke-linecap:butt;stroke-linejoin:miter;stroke-miterlimit:4;stroke-dasharray:none;stroke-dashoffset:0;stroke-opacity:1;color-rendering:auto;image-rendering:auto;shape-rendering:auto;text-rendering:auto;enable-background:accumulate;stop-color:#000000;stop-opacity:1"
   d="M 10.453359,0.06054691 C 9.3745085,0.07497014 8.321073,0.21871786 7.6173456,0.62501509 7.0173023,0.97145031 6.6411891,1.3803827 6.4649711,1.8242659 6.2887531,2.2681487 6.3295123,2.7065631 6.4239544,3.0489078 6.5592865,3.5394755 6.9915933,3.7815011 7.2950714,3.867289 7.5985495,3.953077 7.8634458,3.937603 7.8634458,3.937603 h 5.1563872 c 0.0708,0.0098 0.249508,0.030369 0.496107,-0.011719 C 13.818349,3.874271 14.25878,3.6807626 14.447606,3.2227403 14.76609,2.450216 14.435436,1.3949568 13.293278,0.62501509 12.583534,0.14656531 11.532208,0.04612368 10.453359,0.06054691 Z m 0.01172,1.00002669 c 0.973223,-0.013011 1.962358,0.1854782 2.269592,0.3925886 0.891808,0.6011784 0.902482,1.1136426 0.789084,1.3887089 -0.02712,0.065773 -0.06063,0.077672 -0.17774,0.097659 -0.117105,0.019987 -0.226568,0.00586 -0.226568,0.00586 l -0.04102,-0.00781 H 7.8282887 l -0.011719,0.00195 c 0,0 -0.1246645,0.00223 -0.2500067,-0.033204 C 7.441221,2.8708939 7.4073819,2.850547 7.3888239,2.7832757 7.3293758,2.5677815 7.3185691,2.385144 7.3946833,2.1934163 7.4707978,2.0016885 7.6505509,1.7617375 8.1173589,1.4922257 8.4804829,1.282576 9.4918544,1.0735846 10.465078,1.0605736 Z m 0.599625,3.2090699 c -0.378265,6.511e-4 -0.75653,0.0013 -1.1347958,0.00195 C 9.1666198,4.2866442 8.3720485,4.3162477 7.6271114,4.4317572 6.7191578,4.572544 5.9067225,4.7766285 5.3125966,5.1427137 l -0.050783,0.031251 -0.041017,0.041017 C 4.9288832,5.5054718 4.782163,5.8764314 4.5840616,6.3790747 4.3859602,6.8817181 4.1853406,7.4929 4.0000616,8.1369342 3.6295037,9.4250022 3.3177035,10.823802 3.2285566,11.72492 c -0.1300932,1.315016 0.074014,2.441439 0.2148496,3.09774 h -0.00195 c -0.3719943,0.01884 -0.8608085,0.07596 -1.2246419,0.482435 -0.4255962,0.439409 -0.5635905,1.038964 -0.5195452,1.609416 0.044528,0.576705 0.2496471,1.153125 0.5332174,1.681686 0.2835703,0.528561 0.6465908,1.006594 1.0488561,1.371131 0.4022652,0.364537 0.8478028,0.648879 1.3808961,0.628923 l 5.7013233,-0.01758 5.836094,0.01758 c 0.533098,0.01996 0.978462,-0.264424 1.380896,-0.628923 0.402433,-0.3645 0.765028,-0.84259 1.048856,-1.371131 0.283827,-0.52854 0.490421,-1.104958 0.53517,-1.681686 0.04426,-0.570475 -0.0939,-1.169959 -0.519545,-1.609416 -0.364099,-0.40676 -0.852246,-0.463605 -1.224642,-0.482435 -0.0021,-1.08e-4 -0.0018,1.03e-4 -0.0039,0 0.14151,-0.657215 0.346786,-1.783858 0.216803,-3.09774 C 17.542128,10.823802 17.230337,9.4250022 16.85978,8.1369342 16.674501,7.4928998 16.473881,6.8817181 16.27578,6.3790747 16.077678,5.8764314 15.930958,5.5054721 15.639044,5.2149813 l -0.04102,-0.041017 -0.05078,-0.031251 C 14.484316,4.4877635 12.725957,4.2960772 11.064703,4.2696435 Z m -0.568374,0.9668227 0.07813,0.00195 c 1.67317,-0.010488 3.618923,0.2964568 4.388789,0.7461137 0.04191,0.060447 0.21613,0.3387888 0.382822,0.7617391 0.180356,0.4576179 0.373814,1.0460368 0.55275,1.6680132 0.357864,1.2439528 0.660403,2.6406238 0.736348,3.4082948 0.143307,1.448579 -0.248752,3.082368 -0.29493,3.271571 l -0.970729,1.123077 c -0.120474,-0.03905 -0.365709,-0.113044 -0.685565,-0.199224 0.212864,-1.336462 0.336556,-3.122513 0.277351,-4.798956 C 14.929027,10.305491 14.845589,9.4343272 14.683941,8.6916364 14.522292,7.9489458 14.308552,7.3258993 13.869466,6.900573 l -0.0078,-0.00586 -0.0059,-0.00586 C 13.095764,6.2047674 11.808163,6.0375985 10.511954,6.0333624 9.8638494,6.0312445 9.2195756,6.0908003 8.6525295,6.2169611 8.0854832,6.3431218 7.5906038,6.517597 7.2267102,6.8654159 l -0.00781,0.00586 -0.00781,0.00781 c -0.9829221,1.0177755 -1.1759376,2.6987193 -1.185584,4.4298081 -0.00939,1.685482 0.2005609,3.43376 0.3242275,4.687625 -0.343278,0.09 -0.6100213,0.168432 -0.7246287,0.205083 L 4.5313258,15.174231 C 4.5125997,15.098749 4.0760735,13.324699 4.224677,11.82258 4.3006218,11.054909 4.6031582,9.6582381 4.9610247,8.4142853 5.139958,7.7923089 5.3334178,7.2038902 5.5137739,6.7462721 5.6825159,6.3181224 5.8619799,6.0292225 5.9005029,5.9747671 6.2775255,5.7575159 6.9682184,5.5461582 7.7814125,5.4200649 8.6169274,5.2905104 9.5606109,5.2334513 10.408436,5.2384193 Z m 0.01172,1.7969229 c 1.164885,0.00381 2.355867,0.3174569 2.669993,0.595719 0.164572,0.1632251 0.386239,0.6270519 0.527358,1.2754247 0.142195,0.6533137 0.226986,1.4785572 0.25782,2.3516252 0.05551,1.571837 -0.06401,3.282767 -0.255867,4.529417 -0.856232,-0.175453 -1.9607,-0.334521 -3.18368,-0.337899 C 9.3081245,15.444326 8.1975607,15.598907 7.3341349,15.76995 7.2080173,14.507999 7.016902,12.863622 7.0255329,11.314753 7.0346417,9.680137 7.320926,8.2201644 7.9279008,7.5841851 8.053849,7.4677744 8.4025386,7.2974053 8.8693321,7.1935497 9.3417688,7.0884383 9.9238923,7.03148 10.508047,7.0333891 Z M 3.4902824,15.820732 c 0.1496001,-0.0076 0.18764,0.004 0.2793043,0.01172 l 1.5898862,1.492227 0.2832106,-0.0957 c 0,0 2.3779936,-0.788162 4.8790365,-0.781271 2.501308,0.0069 4.861459,0.806662 4.861457,0.806662 l 0.318369,0.109377 1.322301,-1.529337 c 0.08387,-0.0088 0.159252,-0.023 0.343759,-0.01367 0.264177,0.01336 0.506704,0.111427 0.537123,0.146489 l 0.0098,0.01172 0.01172,0.01172 c 0.189524,0.191156 0.268141,0.460971 0.238287,0.845726 -0.02985,0.384752 -0.185114,0.851551 -0.417979,1.285191 -0.232865,0.433638 -0.542429,0.8361 -0.839866,1.105497 -0.297437,0.269399 -0.578903,0.372559 -0.66994,0.369151 h -0.0098 l -5.865391,-0.01758 -5.7306212,0.01758 h -0.00977 c -0.091042,0.0034 -0.3727006,-0.0998 -0.6699398,-0.369161 C 3.6539954,18.957704 3.3440005,18.557147 3.111366,18.123529 2.8787315,17.689909 2.7250482,17.221161 2.6953393,16.836385 2.6656304,16.451609 2.7440575,16.181862 2.933627,15.990659 l 0.011719,-0.01172 0.00977,-0.01172 c 0.030687,-0.03537 0.2715633,-0.133137 0.5351705,-0.146489 z" /></svg>
