<?xml version="1.0" encoding="UTF-8" standalone="no"?>
<svg
   xmlns:dc="http://purl.org/dc/elements/1.1/"
   xmlns:cc="http://creativecommons.org/ns#"
   xmlns:rdf="http://www.w3.org/1999/02/22-rdf-syntax-ns#"
   xmlns:svg="http://www.w3.org/2000/svg"
   xmlns="http://www.w3.org/2000/svg"
   xmlns:sodipodi="http://sodipodi.sourceforge.net/DTD/sodipodi-0.dtd"
   xmlns:inkscape="http://www.inkscape.org/namespaces/inkscape"
   version="1.1"
   id="Capa_1"
   x="0px"
   y="0px"
   viewBox="0 0 20.766 20.766"
   style="enable-background:new 0 0 20.766 20.766;"
   xml:space="preserve"
   sodipodi:docname="CommonMusic.svg"
   inkscape:version="1.0.1 (3bc2e813f5, 2020-09-07)"><metadata
   id="metadata47"><rdf:RDF><cc:Work
       rdf:about=""><dc:format>image/svg+xml</dc:format><dc:type
         rdf:resource="http://purl.org/dc/dcmitype/StillImage" /></cc:Work></rdf:RDF></metadata><defs
   id="defs45" /><sodipodi:namedview
   pagecolor="#ffffff"
   bordercolor="#666666"
   borderopacity="1"
   objecttolerance="10"
   gridtolerance="10"
   guidetolerance="10"
   inkscape:pageopacity="0"
   inkscape:pageshadow="2"
   inkscape:window-width="1920"
   inkscape:window-height="1016"
   id="namedview43"
   showgrid="false"
   inkscape:zoom="10.593367"
   inkscape:cx="4.6032008"
   inkscape:cy="7.0085995"
   inkscape:window-x="0"
   inkscape:window-y="27"
   inkscape:window-maximized="1"
   inkscape:current-layer="Capa_1" />

<g
   id="g12">
</g>
<g
   id="g14">
</g>
<g
   id="g16">
</g>
<g
   id="g18">
</g>
<g
   id="g20">
</g>
<g
   id="g22">
</g>
<g
   id="g24">
</g>
<g
   id="g26">
</g>
<g
   id="g28">
</g>
<g
   id="g30">
</g>
<g
   id="g32">
</g>
<g
   id="g34">
</g>
<g
   id="g36">
</g>
<g
   id="g38">
</g>
<g
   id="g40">
</g>
<path
   id="path890"
   style="color:#000000;font-style:normal;font-variant:normal;font-weight:normal;font-stretch:normal;font-size:medium;line-height:normal;font-family:sans-serif;font-variant-ligatures:normal;font-variant-position:normal;font-variant-caps:normal;font-variant-numeric:normal;font-variant-alternates:normal;font-variant-east-asian:normal;font-feature-settings:normal;font-variation-settings:normal;text-indent:0;text-align:start;text-decoration:none;text-decoration-line:none;text-decoration-style:solid;text-decoration-color:#000000;letter-spacing:normal;word-spacing:normal;text-transform:none;writing-mode:lr-tb;direction:ltr;text-orientation:mixed;dominant-baseline:auto;baseline-shift:baseline;text-anchor:start;white-space:normal;shape-padding:0;shape-margin:0;inline-size:0;clip-rule:nonzero;display:inline;overflow:visible;visibility:visible;opacity:1;isolation:auto;mix-blend-mode:normal;color-interpolation:sRGB;color-interpolation-filters:linearRGB;solid-color:#000000;solid-opacity:1;vector-effect:none;fill:#1a3282;fill-opacity:1;fill-rule:nonzero;stroke:none;stroke-width:1px;stroke-linecap:round;stroke-linejoin:round;stroke-miterlimit:4;stroke-dasharray:none;stroke-dashoffset:0;stroke-opacity:1;color-rendering:auto;image-rendering:auto;shape-rendering:auto;text-rendering:auto;enable-background:accumulate;stop-color:#000000;stop-opacity:1"
   d="m 17.302734,3.5890732 c -0.0202,-5.731e-4 -0.04042,8.23e-5 -0.06055,0.00195 L 7.2285156,4.5636826 C 6.9723587,4.5888414 6.7771422,4.8043401 6.7773438,5.0617295 v 8.9472655 a 2.3665929,2.6759303 67.157621 0 0 -2.5507813,-0.164062 2.3665929,2.6759303 67.157621 0 0 -1.546875,3.220703 2.3665929,2.6759303 67.157621 0 0 3.3847656,1.142578 2.3665929,2.6759303 67.157621 0 0 1.7109375,-2.466797 c 4.55e-5,-0.0028 0.00195,-0.005 0.00195,-0.0078 V 7.8234482 L 16.791016,6.9464951 V 12.12423 a 2.3665929,2.6759303 67.157621 0 0 -2.550782,-0.16211 2.3665929,2.6759303 67.157621 0 0 -1.546875,3.21875 2.3665929,2.6759303 67.157621 0 0 3.384766,1.142578 2.3665929,2.6759303 67.157621 0 0 1.710937,-2.351562 2.3665929,2.6759303 67.157621 0 0 0,-0.0078 c 1.3e-5,-0.0015 0.002,-0.0024 0.002,-0.0039 V 4.0890732 c 4.8e-5,-0.2716193 -0.216738,-0.4936077 -0.488282,-0.5 z" /></svg>
