<?xml version="1.0" encoding="UTF-8" standalone="no"?>
<svg
   xmlns:dc="http://purl.org/dc/elements/1.1/"
   xmlns:cc="http://creativecommons.org/ns#"
   xmlns:rdf="http://www.w3.org/1999/02/22-rdf-syntax-ns#"
   xmlns:svg="http://www.w3.org/2000/svg"
   xmlns="http://www.w3.org/2000/svg"
   xmlns:sodipodi="http://sodipodi.sourceforge.net/DTD/sodipodi-0.dtd"
   xmlns:inkscape="http://www.inkscape.org/namespaces/inkscape"
   version="1.1"
   id="Capa_1"
   x="0px"
   y="0px"
   viewBox="0 0 20.766 20.766"
   style="enable-background:new 0 0 20.766 20.766;"
   xml:space="preserve"
   sodipodi:docname="CommonTV.svg"
   inkscape:version="1.0.1 (3bc2e813f5, 2020-09-07)"><metadata
   id="metadata47"><rdf:RDF><cc:Work
       rdf:about=""><dc:format>image/svg+xml</dc:format><dc:type
         rdf:resource="http://purl.org/dc/dcmitype/StillImage" /></cc:Work></rdf:RDF></metadata><defs
   id="defs45" /><sodipodi:namedview
   pagecolor="#ffffff"
   bordercolor="#666666"
   borderopacity="1"
   objecttolerance="10"
   gridtolerance="10"
   guidetolerance="10"
   inkscape:pageopacity="0"
   inkscape:pageshadow="2"
   inkscape:window-width="1920"
   inkscape:window-height="1016"
   id="namedview43"
   showgrid="false"
   inkscape:zoom="8.1775563"
   inkscape:cx="27.345363"
   inkscape:cy="26.678681"
   inkscape:window-x="0"
   inkscape:window-y="27"
   inkscape:window-maximized="1"
   inkscape:current-layer="Capa_1" />

<g
   id="g12">
</g>
<g
   id="g14">
</g>
<g
   id="g16">
</g>
<g
   id="g18">
</g>
<g
   id="g20">
</g>
<g
   id="g22">
</g>
<g
   id="g24">
</g>
<g
   id="g26">
</g>
<g
   id="g28">
</g>
<g
   id="g30">
</g>
<g
   id="g32">
</g>
<g
   id="g34">
</g>
<g
   id="g36">
</g>
<g
   id="g38">
</g>
<g
   id="g40">
</g>
<path
   id="path893"
   style="color:#000000;font-style:normal;font-variant:normal;font-weight:normal;font-stretch:normal;font-size:medium;line-height:normal;font-family:sans-serif;font-variant-ligatures:normal;font-variant-position:normal;font-variant-caps:normal;font-variant-numeric:normal;font-variant-alternates:normal;font-variant-east-asian:normal;font-feature-settings:normal;font-variation-settings:normal;text-indent:0;text-align:start;text-decoration:none;text-decoration-line:none;text-decoration-style:solid;text-decoration-color:#000000;letter-spacing:normal;word-spacing:normal;text-transform:none;writing-mode:lr-tb;direction:ltr;text-orientation:mixed;dominant-baseline:auto;baseline-shift:baseline;text-anchor:start;white-space:normal;shape-padding:0;shape-margin:0;inline-size:0;clip-rule:nonzero;display:inline;overflow:visible;visibility:visible;opacity:1;isolation:auto;mix-blend-mode:normal;color-interpolation:sRGB;color-interpolation-filters:linearRGB;solid-color:#000000;solid-opacity:1;vector-effect:none;fill:#1a3282;fill-opacity:1;fill-rule:nonzero;stroke:none;stroke-width:1.134;stroke-linecap:round;stroke-linejoin:round;stroke-miterlimit:4;stroke-dasharray:none;stroke-dashoffset:0;stroke-opacity:1;color-rendering:auto;image-rendering:auto;shape-rendering:auto;text-rendering:auto;enable-background:accumulate;stop-color:#000000;stop-opacity:1"
   d="M 15.416016 0.67382812 A 0.5 0.5 0 0 0 15.085938 0.8203125 L 10.1875 5.7167969 L 7.7363281 3.2636719 A 0.5 0.5 0 0 0 7.0292969 3.2636719 A 0.5 0.5 0 0 0 7.0292969 3.9707031 L 9.4667969 6.4101562 L 1.5683594 6.4101562 C 1.2549273 6.4105149 1.0012328 6.6650842 1.0019531 6.9785156 L 1.0019531 18.878906 C 1.0023111 19.191575 1.2556901 19.444954 1.5683594 19.445312 L 19.369141 19.445312 C 19.68181 19.444954 19.935189 19.191575 19.935547 18.878906 L 19.935547 6.9785156 C 19.936267 6.6650843 19.682573 6.410515 19.369141 6.4101562 L 10.908203 6.4101562 L 15.792969 1.5273438 A 0.5 0.5 0 0 0 15.792969 0.8203125 A 0.5 0.5 0 0 0 15.416016 0.67382812 z M 2.1347656 7.5449219 L 16.425781 7.5449219 L 16.425781 18.310547 L 2.1347656 18.310547 L 2.1347656 7.5449219 z M 18.154297 9.4296875 A 1.25 1.25 0 0 1 19.404297 10.679688 A 1.25 1.25 0 0 1 18.154297 11.929688 A 1.25 1.25 0 0 1 16.904297 10.679688 A 1.25 1.25 0 0 1 18.154297 9.4296875 z M 9.9570312 9.8886719 A 0.5 0.5 0 0 0 9.7714844 9.9296875 A 0.5 0.5 0 0 0 9.515625 10.589844 L 11.611328 15.341797 A 0.50005 0.50005 0 0 0 12.521484 15.355469 L 14.787109 10.603516 A 0.5 0.5 0 0 0 14.550781 9.9375 A 0.5 0.5 0 0 0 13.882812 10.173828 L 12.087891 13.943359 L 10.429688 10.185547 A 0.5 0.5 0 0 0 9.9570312 9.8886719 z M 4.2519531 10.003906 A 0.5 0.5 0 0 0 3.7519531 10.503906 A 0.5 0.5 0 0 0 4.2519531 11.003906 L 5.8183594 11.003906 L 5.8183594 14.982422 A 0.5 0.5 0 0 0 6.3183594 15.482422 A 0.5 0.5 0 0 0 6.8183594 14.982422 L 6.8183594 11.003906 L 8.4160156 11.003906 A 0.5 0.5 0 0 0 8.9160156 10.503906 A 0.5 0.5 0 0 0 8.4160156 10.003906 L 4.2519531 10.003906 z M 18.154297 13.429688 A 1.25 1.25 0 0 1 19.404297 14.679688 A 1.25 1.25 0 0 1 18.154297 15.929688 A 1.25 1.25 0 0 1 16.904297 14.679688 A 1.25 1.25 0 0 1 18.154297 13.429688 z " /></svg>
