<?xml version="1.0" encoding="UTF-8" standalone="no"?>
<svg
   xmlns:dc="http://purl.org/dc/elements/1.1/"
   xmlns:cc="http://creativecommons.org/ns#"
   xmlns:rdf="http://www.w3.org/1999/02/22-rdf-syntax-ns#"
   xmlns:svg="http://www.w3.org/2000/svg"
   xmlns="http://www.w3.org/2000/svg"
   xmlns:sodipodi="http://sodipodi.sourceforge.net/DTD/sodipodi-0.dtd"
   xmlns:inkscape="http://www.inkscape.org/namespaces/inkscape"
   version="1.1"
   id="Capa_1"
   x="0px"
   y="0px"
   viewBox="0 0 20.766 20.766"
   style="enable-background:new 0 0 20.766 20.766;"
   xml:space="preserve"
   sodipodi:docname="Headphones.svg"
   inkscape:version="1.0.1 (3bc2e813f5, 2020-09-07)"><metadata
   id="metadata47"><rdf:RDF><cc:Work
       rdf:about=""><dc:format>image/svg+xml</dc:format><dc:type
         rdf:resource="http://purl.org/dc/dcmitype/StillImage" /></cc:Work></rdf:RDF></metadata><defs
   id="defs45" /><sodipodi:namedview
   pagecolor="#ffffff"
   bordercolor="#666666"
   borderopacity="1"
   objecttolerance="10"
   gridtolerance="10"
   guidetolerance="10"
   inkscape:pageopacity="0"
   inkscape:pageshadow="2"
   inkscape:window-width="1920"
   inkscape:window-height="1016"
   id="namedview43"
   showgrid="false"
   inkscape:zoom="25.791582"
   inkscape:cx="9.1267661"
   inkscape:cy="13.759601"
   inkscape:window-x="0"
   inkscape:window-y="27"
   inkscape:window-maximized="1"
   inkscape:current-layer="Capa_1" />

<g
   id="g12">
</g>
<g
   id="g14">
</g>
<g
   id="g16">
</g>
<g
   id="g18">
</g>
<g
   id="g20">
</g>
<g
   id="g22">
</g>
<g
   id="g24">
</g>
<g
   id="g26">
</g>
<g
   id="g28">
</g>
<g
   id="g30">
</g>
<g
   id="g32">
</g>
<g
   id="g34">
</g>
<g
   id="g36">
</g>
<g
   id="g38">
</g>
<g
   id="g40">
</g>
<path
   id="path895"
   style="color:#000000;font-style:normal;font-variant:normal;font-weight:normal;font-stretch:normal;font-size:medium;line-height:normal;font-family:sans-serif;font-variant-ligatures:normal;font-variant-position:normal;font-variant-caps:normal;font-variant-numeric:normal;font-variant-alternates:normal;font-variant-east-asian:normal;font-feature-settings:normal;font-variation-settings:normal;text-indent:0;text-align:start;text-decoration:none;text-decoration-line:none;text-decoration-style:solid;text-decoration-color:#000000;letter-spacing:normal;word-spacing:normal;text-transform:none;writing-mode:lr-tb;direction:ltr;text-orientation:mixed;dominant-baseline:auto;baseline-shift:baseline;text-anchor:start;white-space:normal;shape-padding:0;shape-margin:0;inline-size:0;clip-rule:nonzero;display:inline;overflow:visible;visibility:visible;opacity:1;isolation:auto;mix-blend-mode:normal;color-interpolation:sRGB;color-interpolation-filters:linearRGB;solid-color:#000000;solid-opacity:1;vector-effect:none;fill:#1a3282;fill-opacity:1;fill-rule:nonzero;stroke:none;stroke-width:1;stroke-linecap:round;stroke-linejoin:round;stroke-miterlimit:4;stroke-dasharray:none;stroke-dashoffset:0;stroke-opacity:1;color-rendering:auto;image-rendering:auto;shape-rendering:auto;text-rendering:auto;enable-background:accumulate;stop-color:#000000;stop-opacity:1"
   d="M 10.459744,2.1347656 C 7.0433215,2.1816904 4.920682,3.8417969 4.920682,3.8417969 A 1,1 0 0 0 4.5730257,4.8613281 C 2.5042303,6.5976915 1.1863069,9.2253386 1.186307,12.158203 c 0,0.757528 0.097491,1.490668 0.2636719,2.197266 h 0.029297 a 2.3901951,2.4427426 0 0 0 -0.039062,0.429687 2.3901951,2.4427426 0 0 0 2.390625,2.441406 2.3901951,2.4427426 0 0 0 0.013672,0 v 0.394532 c 0,0.600424 0.48356,1.083984 1.0839844,1.083984 h 0.9257812 c 0.6004243,0 1.0839844,-0.48356 1.0839844,-1.083984 v -5.28125 c 0,-0.600424 -0.48356,-1.083985 -1.0839844,-1.083985 H 4.9284945 c -0.6004244,0 -1.0839844,0.483561 -1.0839844,1.083985 v 0.002 a 2.3901951,2.4427426 0 0 0 -0.013672,0 2.3901951,2.4427426 0 0 0 -1.5898438,0.621094 C 2.2148707,12.69685 2.186307,12.431527 2.186307,12.158203 2.1863069,9.498217 3.3886583,7.1326962 5.2663851,5.5839844 A 1,1 0 0 0 6.1667757,5.40625 c 0,0 1.5121967,-1.2329147 4.3203123,-1.2714844 2.770547,-0.038053 4.292969,1.2890625 4.292968,1.2890625 a 1,1 0 0 0 0.966797,0.1875 c 1.858027,1.5491766 3.044922,3.9031199 3.044922,6.5468749 0,0.260733 -0.02891,0.513463 -0.05273,0.767578 a 2.3901951,2.4427426 0 0 0 -1.550781,-0.583984 2.3901951,2.4427426 0 0 0 -0.01367,0.01367 v -0.01563 c 0,-0.600425 -0.48356,-1.083985 -1.083985,-1.083985 h -0.925781 c -0.600424,0 -1.083984,0.48356 -1.083984,1.083985 v 5.28125 c 0,0.600425 0.48356,1.083984 1.083984,1.083984 h 0.925781 c 0.600425,0 1.083985,-0.483559 1.083985,-1.083984 v -0.408203 a 2.3901951,2.4427426 0 0 0 0.01367,0.01367 2.3901951,2.4427426 0 0 0 2.390625,-2.441406 2.3901951,2.4427426 0 0 0 -0.04492,-0.466797 c 0.161017,-0.695396 0.257812,-1.415594 0.257812,-2.160156 0,-2.9308749 -1.316437,-5.5565765 -3.382812,-7.2929686 -3.39e-4,-2.847e-4 3.39e-4,-0.00167 0,-0.00195 A 1,1 0 0 0 16.076932,3.9023438 c 0,0 -2.163197,-1.8150187 -5.617188,-1.7675782 z" /><g
   id="g908"
   transform="matrix(-1,0,0,1,30.724289,-0.33561329)" /></svg>
