<?xml version="1.0" encoding="UTF-8" standalone="no"?>
<svg
   xmlns:dc="http://purl.org/dc/elements/1.1/"
   xmlns:cc="http://creativecommons.org/ns#"
   xmlns:rdf="http://www.w3.org/1999/02/22-rdf-syntax-ns#"
   xmlns:svg="http://www.w3.org/2000/svg"
   xmlns="http://www.w3.org/2000/svg"
   xmlns:sodipodi="http://sodipodi.sourceforge.net/DTD/sodipodi-0.dtd"
   xmlns:inkscape="http://www.inkscape.org/namespaces/inkscape"
   version="1.1"
   id="Capa_1"
   x="0px"
   y="0px"
   viewBox="0 0 20.766 20.766"
   style="enable-background:new 0 0 20.766 20.766;"
   xml:space="preserve"
   sodipodi:docname="IslamicStops.svg"
   inkscape:version="1.0.1 (3bc2e813f5, 2020-09-07)"><metadata
   id="metadata47"><rdf:RDF><cc:Work
       rdf:about=""><dc:format>image/svg+xml</dc:format><dc:type
         rdf:resource="http://purl.org/dc/dcmitype/StillImage" /></cc:Work></rdf:RDF></metadata><defs
   id="defs45" /><sodipodi:namedview
   pagecolor="#ffffff"
   bordercolor="#666666"
   borderopacity="1"
   objecttolerance="10"
   gridtolerance="10"
   guidetolerance="10"
   inkscape:pageopacity="0"
   inkscape:pageshadow="2"
   inkscape:window-width="1920"
   inkscape:window-height="1016"
   id="namedview43"
   showgrid="false"
   inkscape:zoom="6.0992348"
   inkscape:cx="52.889169"
   inkscape:cy="-3.7858088"
   inkscape:window-x="0"
   inkscape:window-y="27"
   inkscape:window-maximized="1"
   inkscape:current-layer="Capa_1"
   inkscape:document-rotation="0" />

<g
   id="g12">
</g>
<g
   id="g14">
</g>
<g
   id="g16">
</g>
<g
   id="g18">
</g>
<g
   id="g20">
</g>
<g
   id="g22">
</g>
<g
   id="g24">
</g>
<g
   id="g26">
</g>
<g
   id="g28">
</g>
<g
   id="g30">
</g>
<g
   id="g32">
</g>
<g
   id="g34">
</g>
<g
   id="g36">
</g>
<g
   id="g38">
</g>
<g
   id="g40">
</g>
<path
   id="path859"
   style="fill:#1a3282;fill-opacity:1;stroke-width:0.318646"
   d="M 9.8955179,0.44995833 C 9.789053,0.46298481 9.6208555,0.5036491 9.3983936,0.55718177 4.0701021,1.8394029 1.8413879,7.7496226 5.0558736,12.078752 5.9502558,13.283267 6.9025038,13.963421 8.5796025,14.588738 12.449374,16.031616 16.94242,13.382791 17.903105,9.0960102 18.238793,7.5981373 18.128832,6.7731967 17.752021,7.9604244 17.425478,8.9892636 15.159698,10.824765 13.930993,11.055262 11.381399,11.533568 8.9483278,10.330977 7.7803059,8.0189084 6.5253543,5.5347624 6.9825676,3.2494985 9.1108425,1.3808467 9.9902871,0.60868008 10.214915,0.41088062 9.8955179,0.44995833 Z M 10.704563,15.651218 c -0.253109,0.03494 -0.515061,0.171501 -0.7408119,0.443511 -0.3832482,0.46179 -0.1615674,1.47675 0.3216669,1.47675 0.156505,0 -0.01446,0.297133 -0.3801533,0.662832 -0.4594467,0.459454 -0.6082103,0.897947 -0.4776278,1.418264 0.066257,0.263993 0.021338,0.461913 -0.1364654,0.667706 0.9327295,0.174887 1.7056005,0.181537 2.8803915,-0.07798 -0.09914,-0.194263 -0.130243,-0.397541 -0.08773,-0.687203 0.08272,-0.563601 -0.05544,-1.057735 -0.360657,-1.311041 -0.380619,-0.315891 -0.411497,-0.53436 -0.136468,-0.974753 0.561657,-0.899351 -0.122819,-1.722886 -0.882148,-1.618088 z" /></svg>
