<?xml version="1.0" encoding="UTF-8" standalone="no"?>
<svg
   xmlns:dc="http://purl.org/dc/elements/1.1/"
   xmlns:cc="http://creativecommons.org/ns#"
   xmlns:rdf="http://www.w3.org/1999/02/22-rdf-syntax-ns#"
   xmlns:svg="http://www.w3.org/2000/svg"
   xmlns="http://www.w3.org/2000/svg"
   xmlns:sodipodi="http://sodipodi.sourceforge.net/DTD/sodipodi-0.dtd"
   xmlns:inkscape="http://www.inkscape.org/namespaces/inkscape"
   version="1.1"
   id="Capa_1"
   x="0px"
   y="0px"
   viewBox="0 0 20.766 20.766"
   style="enable-background:new 0 0 20.766 20.766;"
   xml:space="preserve"
   sodipodi:docname="Nonstop.svg"
   inkscape:version="1.0.1 (3bc2e813f5, 2020-09-07)"><metadata
   id="metadata47"><rdf:RDF><cc:Work
       rdf:about=""><dc:format>image/svg+xml</dc:format><dc:type
         rdf:resource="http://purl.org/dc/dcmitype/StillImage" /></cc:Work></rdf:RDF></metadata><defs
   id="defs45" /><sodipodi:namedview
   pagecolor="#ffffff"
   bordercolor="#666666"
   borderopacity="1"
   objecttolerance="10"
   gridtolerance="10"
   guidetolerance="10"
   inkscape:pageopacity="0"
   inkscape:pageshadow="2"
   inkscape:window-width="1920"
   inkscape:window-height="1016"
   id="namedview43"
   showgrid="false"
   inkscape:zoom="16.554896"
   inkscape:cx="19.854859"
   inkscape:cy="18.494908"
   inkscape:window-x="0"
   inkscape:window-y="27"
   inkscape:window-maximized="1"
   inkscape:current-layer="Capa_1"
   inkscape:document-rotation="0" />

<g
   id="g12">
</g>
<g
   id="g14">
</g>
<g
   id="g16">
</g>
<g
   id="g18">
</g>
<g
   id="g20">
</g>
<g
   id="g22">
</g>
<g
   id="g24">
</g>
<g
   id="g26">
</g>
<g
   id="g28">
</g>
<g
   id="g30">
</g>
<g
   id="g32">
</g>
<g
   id="g34">
</g>
<g
   id="g36">
</g>
<g
   id="g38">
</g>
<g
   id="g40">
</g>
<path
   id="path905"
   style="color:#000000;font-style:normal;font-variant:normal;font-weight:normal;font-stretch:normal;font-size:medium;line-height:normal;font-family:sans-serif;font-variant-ligatures:normal;font-variant-position:normal;font-variant-caps:normal;font-variant-numeric:normal;font-variant-alternates:normal;font-variant-east-asian:normal;font-feature-settings:normal;font-variation-settings:normal;text-indent:0;text-align:start;text-decoration:none;text-decoration-line:none;text-decoration-style:solid;text-decoration-color:#000000;letter-spacing:normal;word-spacing:normal;text-transform:none;writing-mode:lr-tb;direction:ltr;text-orientation:mixed;dominant-baseline:auto;baseline-shift:baseline;text-anchor:start;white-space:normal;shape-padding:0;shape-margin:0;inline-size:0;clip-rule:nonzero;display:inline;overflow:visible;visibility:visible;opacity:1;isolation:auto;mix-blend-mode:normal;color-interpolation:sRGB;color-interpolation-filters:linearRGB;solid-color:#000000;solid-opacity:1;vector-effect:none;fill:#1a3282;fill-opacity:1;fill-rule:nonzero;stroke:none;stroke-width:1;stroke-linecap:round;stroke-linejoin:round;stroke-miterlimit:4;stroke-dasharray:none;stroke-dashoffset:0;stroke-opacity:1;color-rendering:auto;image-rendering:auto;shape-rendering:auto;text-rendering:auto;enable-background:accumulate;stop-color:#000000;stop-opacity:1"
   d="m 10.465625,0.7 c -5.3869374,2e-7 -9.76562519,4.376735 -9.765625,9.763671 -10e-9,5.386937 4.3786878,9.765625 9.765625,9.765625 5.386937,0 9.763672,-4.378686 9.763672,-9.765624 C 20.229297,5.0767349 15.852562,0.7 10.465625,0.7 Z m 0,1 c 4.846497,0 8.763672,3.917175 8.763672,8.763671 0,2.260316 -0.860755,4.31184 -2.261719,5.865235 l -1.912109,-1.91211 c 0.192282,-0.677175 0.1875,-1.21289 0.1875,-1.21289 V 7.8210937 l -0.002,0.025391 c 0,0 0.02657,-0.3443114 -0.105469,-0.7246094 C 15.06948,6.9317263 14.958692,6.7160456 14.7605,6.5378909 14.562354,6.3597359 14.27384,6.2377093 13.955859,6.2273437 13.743588,6.220424 13.514026,6.3572985 13.526172,6.4753906 v -0.4042969 -0.00391 c 1.03e-4,-0.00358 0.01017,-0.3223818 -0.136719,-0.6699219 -0.147714,-0.3494859 -0.569602,-0.7797713 -1.171875,-0.7832031 -0.188801,-0.00108 -0.417739,0.095256 -0.388672,0.2128906 -0.0053,-0.035875 -0.03715,-0.2799003 -0.224609,-0.5507812 -0.200724,-0.29004 -0.623708,-0.5898438 -1.189453,-0.5898438 -0.5647669,1e-7 -0.9889255,0.3110749 -1.1699221,0.6152344 -0.1809969,0.3041595 -0.1875,0.609375 -0.1875,0.609375 -1.03e-4,0.00586 -1.03e-4,0.011719 0,0.017578 v 0.578125 C 9.0610597,5.3495443 8.8078041,5.2348052 8.5691406,5.2332031 7.9415349,5.2289896 7.5025569,5.659182 7.3308593,6.0164063 7.2309911,6.2241866 7.1929492,6.4013641 7.1726562,6.5339844 L 4.5984375,3.9617187 C 6.1519575,2.5601785 8.2047877,1.7000001 10.465625,1.7 Z M 3.8953125,4.6707031 7.1472656,7.9246094 V 10.098438 C 6.927126,9.8580135 6.7088434,9.5976862 6.48125,9.4421875 6.236159,9.2747327 5.9112387,9.0843902 5.5027343,9.0261719 5.0955376,8.9681398 4.5546523,9.1429281 4.2703125,9.6003906 4.1244303,9.8308785 4.1022219,10.09896 4.1375,10.326954 c 0.035754,0.231067 0.1198114,0.446709 0.2285156,0.667968 0.2174084,0.44252 0.5423536,0.913762 0.9082031,1.416016 0.7294203,1.001379 1.6180111,2.123266 2.0488282,3.007813 0,0 0.2835104,0.600541 0.9785156,1.089842 0.6950052,0.489302 1.8258405,0.89522 3.4726565,0.695313 1.482723,-0.179989 2.359742,-0.983828 2.847656,-1.80664 l 1.636719,1.636718 c -1.544182,1.362711 -3.567833,2.195312 -5.792969,2.195312 C 5.6191279,19.229296 1.7,15.310169 1.7,10.463672 1.6999999,8.2385358 2.5326014,6.2148844 3.8953125,4.6707031 Z m 6.5195315,0.015625 c 0.265897,0 0.309047,0.074193 0.367187,0.1582032 0.05518,0.079731 0.06512,0.1415331 0.06641,0.1484374 v 0.65625 c -4.6e-5,0.00391 -4.6e-5,0.00781 0,0.011719 v 0.2441406 4.1601567 c -6.4e-5,0.06143 0.01119,0.122339 0.0332,0.179686 L 10.057422,9.4207031 V 6.6726563 c 2.49e-4,-0.00911 2.49e-4,-0.018231 0,-0.027344 V 4.9460937 c 0,0 0.0067,-0.065365 0.04687,-0.1328124 0.04014,-0.067447 0.04367,-0.1269531 0.310547,-0.1269532 z m 1.798828,0.9277344 c 0.216219,0.00123 0.200797,0.048174 0.253906,0.1738281 0.05311,0.1256544 0.05859,0.2753905 0.05859,0.2753907 -5e-6,0.0013 -5e-6,0.0026 0,0.00391 v 1.2382812 c -4.6e-5,0.00391 -4.6e-5,0.00781 0,0.011719 v 0.3242188 2.7324227 c 0,0.276142 0.223858,0.5 0.5,0.5 0.276142,0 0.5,-0.223858 0.5,-0.5 V 7.6707031 c 0,0 0.01423,-0.1431262 0.07813,-0.265625 0.0639,-0.1224988 0.07254,-0.1857478 0.318359,-0.1777344 0.110795,0.00361 0.137016,0.025108 0.169922,0.054688 0.03291,0.029579 0.06993,0.088128 0.09766,0.1679687 0.05544,0.1596821 0.05274,0.3457031 0.05274,0.3457031 -2.15e-4,0.00846 -2.15e-4,0.016928 0,0.025391 V 13.21172 c -3.2e-5,0.0033 -3.2e-5,0.0065 0,0.0098 0,0 -0.01,0.167311 -0.03125,0.353516 l -3.041016,-3.042969 c 0.05673,0.02178 0.116964,0.03303 0.177734,0.0332 0.276142,0 0.5,-0.223858 0.5,-0.5 V 5.9363281 c 0,0 0.01088,-0.091669 0.06055,-0.1777344 0.04966,-0.086065 0.05734,-0.1459422 0.304675,-0.1445312 z M 8.5613281,6.2332031 c 0.2583012,0.00173 0.3187259,0.089076 0.3984375,0.21875 0.076725,0.1248161 0.096032,0.2426116 0.097656,0.2519532 V 8.4207031 L 8.1472656,7.5105469 V 6.7644531 c 0,0 0.015187,-0.1672534 0.085937,-0.3144531 0.070751,-0.1471997 0.090336,-0.2183933 0.3281255,-0.2167969 z M 8.1472656,8.9246094 9.0574219,9.8347655 v 0.08203 c 0,0.2761425 0.2238576,0.5000005 0.5,0.5000005 0.025503,-8e-6 0.050968,-0.002 0.076172,-0.0059 l 4.2617181,4.261719 c -0.326832,0.69529 -0.903378,1.376543 -2.242187,1.539062 -1.438104,0.174573 -2.2743761,-0.166804 -2.7753905,-0.519531 -0.5010142,-0.352726 -0.6425781,-0.6875 -0.6425781,-0.6875 -0.0019,-0.0039 -0.00386,-0.0078 -0.00586,-0.01172 C 7.7134566,13.928557 6.7930234,12.796102 6.0828125,11.821094 5.727707,11.333589 5.425977,10.886262 5.2625,10.553516 5.1807614,10.387143 5.1374195,10.249825 5.1257812,10.17461 c -0.011638,-0.07522 0.00136,-0.06321 -0.015625,-0.03711 0.00266,-0.0039 0.00526,-0.0078 0.00781,-0.01172 0.097701,-0.158742 0.09821,-0.132125 0.2441406,-0.111328 0.1459311,0.0208 0.3830706,0.135317 0.5566407,0.253906 0.086514,0.05911 0.4867902,0.454618 0.7890625,0.794922 0.3022722,0.340304 0.5546875,0.646484 0.5546875,0.646484 0.2980889,0.359019 0.8819417,0.150224 0.8847656,-0.316406 z"
   sodipodi:nodetypes="ssssssscccccssscccsscssscccssccscccsscssscssccsscssccccccccccsssscccccssscsssscccccccscssssccccssccscccssccsssccsssccc" /></svg>
