<?xml version="1.0" encoding="UTF-8" standalone="no"?>
<svg
   xmlns:dc="http://purl.org/dc/elements/1.1/"
   xmlns:cc="http://creativecommons.org/ns#"
   xmlns:rdf="http://www.w3.org/1999/02/22-rdf-syntax-ns#"
   xmlns:svg="http://www.w3.org/2000/svg"
   xmlns="http://www.w3.org/2000/svg"
   xmlns:sodipodi="http://sodipodi.sourceforge.net/DTD/sodipodi-0.dtd"
   xmlns:inkscape="http://www.inkscape.org/namespaces/inkscape"
   version="1.1"
   id="Capa_1"
   x="0px"
   y="0px"
   viewBox="0 0 20.766 20.766"
   style="enable-background:new 0 0 20.766 20.766;"
   xml:space="preserve"
   sodipodi:docname="PhoneCalls.svg"
   inkscape:version="1.0.1 (3bc2e813f5, 2020-09-07)"><metadata
   id="metadata47"><rdf:RDF><cc:Work
       rdf:about=""><dc:format>image/svg+xml</dc:format><dc:type
         rdf:resource="http://purl.org/dc/dcmitype/StillImage" /></cc:Work></rdf:RDF></metadata><defs
   id="defs45" /><sodipodi:namedview
   pagecolor="#ffffff"
   bordercolor="#666666"
   borderopacity="1"
   objecttolerance="10"
   gridtolerance="10"
   guidetolerance="10"
   inkscape:pageopacity="0"
   inkscape:pageshadow="2"
   inkscape:window-width="1920"
   inkscape:window-height="1016"
   id="namedview43"
   showgrid="false"
   showguides="false"
   inkscape:zoom="19.15721"
   inkscape:cx="14.38227"
   inkscape:cy="6.5452419"
   inkscape:window-x="0"
   inkscape:window-y="27"
   inkscape:window-maximized="1"
   inkscape:current-layer="Capa_1" />

<g
   id="g12">
</g>
<g
   id="g14">
</g>
<g
   id="g16">
</g>
<g
   id="g18">
</g>
<g
   id="g20">
</g>
<g
   id="g22">
</g>
<g
   id="g24">
</g>
<g
   id="g26">
</g>
<g
   id="g28">
</g>
<g
   id="g30">
</g>
<g
   id="g32">
</g>
<g
   id="g34">
</g>
<g
   id="g36">
</g>
<g
   id="g38">
</g>
<g
   id="g40">
</g>
<path
   style="fill:#1a3282;fill-opacity:1;stroke-width:0.0568906"
   d="M 12.594344,19.556939 C 10.443161,19.168603 7.7120122,17.457786 5.7983745,15.299876 3.3085381,12.492228 1.9709785,9.6347293 1.6909337,6.5249228 1.5440677,4.8940394 1.9203775,3.4921639 2.6846615,2.8229573 3.0122357,2.5361477 3.5499432,2.2921351 4.0447703,2.2057526 4.43087,2.1383839 4.572196,2.1392184 5.0715331,2.2122439 6.2797184,2.3891475 6.6670616,2.5448382 6.9298466,2.9592125 7.19188,3.3723989 7.2412374,3.7351237 7.3666492,6.1694596 7.402375,6.8630157 7.3108793,7.3317583 7.0680735,7.6986216 6.9037158,7.9469864 6.5399052,8.1566186 6.2726383,8.1569527 6.0803958,8.1571847 5.7688472,8.3302558 5.6877076,8.4818636 5.4079784,9.0045384 5.731414,9.9822771 6.6160247,11.288511 7.9116782,13.20161 9.545262,14.75604 10.260124,14.75604 c 0.239186,0 0.468706,-0.186749 0.596808,-0.485603 0.05679,-0.132436 0.199481,-0.314156 0.317144,-0.403823 0.202839,-0.154596 0.243642,-0.163031 0.787093,-0.162707 0.621835,3.99e-4 1.043707,0.108644 1.698169,0.435829 0.180699,0.09038 0.565944,0.250192 0.856113,0.355227 1.587753,0.574742 1.955516,1.013512 1.801116,2.148854 -0.164702,1.211071 -0.354634,1.689 -0.882783,2.221382 -0.671109,0.676481 -1.629779,0.90999 -2.83944,0.691616 z m 5.846717,-7.560235 c -0.09657,-0.04064 -0.197141,-0.108356 -0.223514,-0.150559 -0.02635,-0.04222 -0.05159,-0.639948 -0.05604,-1.328318 C 18.154078,9.3914031 18.138952,9.2064171 18.009504,8.6680879 17.616155,7.0326669 16.906007,5.7744931 15.696801,4.5706597 14.36685,3.2466109 12.872848,2.4862892 10.942424,2.1510873 10.581323,2.0883582 10.459622,2.0413578 10.358291,1.9253367 10.131223,1.6653727 10.221985,1.2614285 10.53706,1.1297901 c 0.167522,-0.069967 0.256003,-0.069967 0.654554,5.57e-5 3.618219,0.636144 6.448686,3.0269686 7.576279,6.3994949 0.331379,0.9911389 0.461134,1.8288141 0.457218,2.9518423 -0.0019,0.51179 -0.01912,1.015229 -0.0386,1.118769 -0.06699,0.357064 -0.408082,0.538589 -0.745473,0.396724 z m -2.732633,-0.342142 c -0.09706,-0.04083 -0.196761,-0.13407 -0.221547,-0.207238 -0.02477,-0.07312 -0.03786,-0.443308 -0.02904,-0.822522 C 15.497274,8.9274024 14.922588,7.5398079 13.693375,6.3644532 12.79658,5.5069477 11.799392,4.9967538 10.639236,4.8018573 10.147378,4.7192702 9.9571029,4.5825096 9.908432,4.2767328 9.8794802,4.0946791 9.8984102,4.0424637 10.048199,3.892721 c 0.204585,-0.2045841 0.367884,-0.2178817 1.0236,-0.083329 1.773508,0.363894 3.47549,1.5480642 4.433251,3.0844734 0.714816,1.1466812 1.116421,2.7204585 1.011451,3.9635819 -0.04537,0.537412 -0.142161,0.755219 -0.356433,0.802126 -0.08546,0.01874 -0.18236,0.04194 -0.215282,0.05159 -0.03294,0.0097 -0.139295,-0.01578 -0.236358,-0.05661 z m -2.575374,-0.317758 c -0.328651,-0.06959 -0.399601,-0.213965 -0.399601,-0.813325 0,-0.287219 -0.03925,-0.6727053 -0.08713,-0.8566519 C 12.344513,8.5081379 11.312406,7.6023143 10.055317,7.3928676 9.6543976,7.3260556 9.4602342,6.9873275 9.6249168,6.6419738 9.7545601,6.3701044 9.942896,6.3091011 10.398982,6.3912523 c 0.856837,0.1543266 1.732549,0.6389092 2.327028,1.2876826 0.740686,0.8083242 1.164192,2.0442458 1.037685,3.0282591 -0.07377,0.574185 -0.217019,0.717154 -0.630659,0.62961 z"
   id="path902"
   sodipodi:nodetypes="ssssssssscssssscscssscssssssscscsccsscsssssssssscscsssssc" /></svg>
