<?xml version="1.0" encoding="UTF-8" standalone="no"?>
<svg
   xmlns:dc="http://purl.org/dc/elements/1.1/"
   xmlns:cc="http://creativecommons.org/ns#"
   xmlns:rdf="http://www.w3.org/1999/02/22-rdf-syntax-ns#"
   xmlns:svg="http://www.w3.org/2000/svg"
   xmlns="http://www.w3.org/2000/svg"
   xmlns:sodipodi="http://sodipodi.sourceforge.net/DTD/sodipodi-0.dtd"
   xmlns:inkscape="http://www.inkscape.org/namespaces/inkscape"
   version="1.1"
   id="Capa_1"
   x="0px"
   y="0px"
   viewBox="0 0 20.766 20.766"
   style="enable-background:new 0 0 20.766 20.766;"
   xml:space="preserve"
   sodipodi:docname="PowerUsb.svg"
   inkscape:version="1.0.1 (3bc2e813f5, 2020-09-07)"><metadata
   id="metadata47"><rdf:RDF><cc:Work
       rdf:about=""><dc:format>image/svg+xml</dc:format><dc:type
         rdf:resource="http://purl.org/dc/dcmitype/StillImage" /></cc:Work></rdf:RDF></metadata><defs
   id="defs45" /><sodipodi:namedview
   pagecolor="#ffffff"
   bordercolor="#666666"
   borderopacity="1"
   objecttolerance="10"
   gridtolerance="10"
   guidetolerance="10"
   inkscape:pageopacity="0"
   inkscape:pageshadow="2"
   inkscape:window-width="1920"
   inkscape:window-height="1016"
   id="namedview43"
   showgrid="false"
   inkscape:zoom="9.5224709"
   inkscape:cx="40.011858"
   inkscape:cy="31.128546"
   inkscape:window-x="0"
   inkscape:window-y="27"
   inkscape:window-maximized="1"
   inkscape:current-layer="Capa_1"
   inkscape:document-rotation="0" />

<g
   id="g12">
</g>
<g
   id="g14">
</g>
<g
   id="g16">
</g>
<g
   id="g18">
</g>
<g
   id="g20">
</g>
<g
   id="g22">
</g>
<g
   id="g24">
</g>
<g
   id="g26">
</g>
<g
   id="g28">
</g>
<g
   id="g30">
</g>
<g
   id="g32">
</g>
<g
   id="g34">
</g>
<g
   id="g36">
</g>
<g
   id="g38">
</g>
<g
   id="g40">
</g>
<path
   id="path902"
   style="color:#000000;font-style:normal;font-variant:normal;font-weight:normal;font-stretch:normal;font-size:medium;line-height:normal;font-family:sans-serif;font-variant-ligatures:normal;font-variant-position:normal;font-variant-caps:normal;font-variant-numeric:normal;font-variant-alternates:normal;font-variant-east-asian:normal;font-feature-settings:normal;font-variation-settings:normal;text-indent:0;text-align:start;text-decoration:none;text-decoration-line:none;text-decoration-style:solid;text-decoration-color:#000000;letter-spacing:normal;word-spacing:normal;text-transform:none;writing-mode:lr-tb;direction:ltr;text-orientation:mixed;dominant-baseline:auto;baseline-shift:baseline;text-anchor:start;white-space:normal;shape-padding:0;shape-margin:0;inline-size:0;clip-rule:nonzero;display:inline;overflow:visible;visibility:visible;opacity:1;isolation:auto;mix-blend-mode:normal;color-interpolation:sRGB;color-interpolation-filters:linearRGB;solid-color:#000000;solid-opacity:1;vector-effect:none;fill:#1a3282;fill-opacity:1;fill-rule:nonzero;stroke:none;stroke-width:1;stroke-linecap:round;stroke-linejoin:round;stroke-miterlimit:4;stroke-dasharray:none;stroke-dashoffset:0;stroke-opacity:1;color-rendering:auto;image-rendering:auto;shape-rendering:auto;text-rendering:auto;enable-background:accumulate;stop-color:#000000;stop-opacity:1"
   d="m 6.8801048,0.88253862 c -0.2761309,2.761e-5 -0.4999724,0.22386908 -0.5,0.49999998 V 8.0192574 H 6.134011 c -0.2761309,2.76e-5 -0.4999724,0.2238691 -0.5,0.5 V 19.644258 c 2.76e-5,0.276131 0.2238691,0.499972 0.5,0.5 h 8.917969 c 0.276131,-2.8e-5 0.499972,-0.223869 0.5,-0.5 V 8.5192574 c -2.8e-5,-0.2761309 -0.223869,-0.4999724 -0.5,-0.5 H 14.872292 V 1.3825386 c -2.8e-5,-0.2761309 -0.223869,-0.49997237 -0.5,-0.49999998 z m 0.5,0.99999998 H 13.872292 V 8.0192574 H 7.3801048 Z m 0.8105469,2.0273438 c -0.1380655,1.38e-5 -0.2499862,0.1119345 -0.25,0.25 v 1.5351562 c 1.38e-5,0.1380655 0.1119345,0.2499862 0.25,0.25 H 10.14573 c 0.138065,-1.38e-5 0.249986,-0.1119345 0.25,-0.25 V 4.1598824 c -1.4e-5,-0.1380655 -0.111935,-0.2499862 -0.25,-0.25 z m 2.9140623,0 c -0.138065,1.38e-5 -0.249986,0.1119345 -0.25,0.25 v 1.5351562 c 1.4e-5,0.1380655 0.111935,0.2499862 0.25,0.25 h 1.955078 c 0.138065,-1.38e-5 0.249986,-0.1119345 0.25,-0.25 V 4.1598824 c -1.4e-5,-0.1380655 -0.111935,-0.2499862 -0.25,-0.25 z m -2.6640623,0.5 H 9.8957298 V 5.4450386 H 8.4406517 Z m 2.9140623,0 h 1.455078 v 1.0351562 h -1.455078 z m -0.564453,6.6464846 v 2.09961 c -5.3e-5,0.135072 0.107183,0.245766 0.242188,0.25 l 1.236328,0.04101 -1.699219,3.65625 0.115234,-1.845703 c 0.009,-0.144123 -0.105596,-0.265892 -0.25,-0.265625 H 8.899636 Z"
   sodipodi:nodetypes="ccccccccccccccccccccccccccccccccccccccccccccccccccccccccc" /></svg>
