<?xml version="1.0" encoding="UTF-8" standalone="no"?>
<svg
   xmlns:dc="http://purl.org/dc/elements/1.1/"
   xmlns:cc="http://creativecommons.org/ns#"
   xmlns:rdf="http://www.w3.org/1999/02/22-rdf-syntax-ns#"
   xmlns:svg="http://www.w3.org/2000/svg"
   xmlns="http://www.w3.org/2000/svg"
   xmlns:sodipodi="http://sodipodi.sourceforge.net/DTD/sodipodi-0.dtd"
   xmlns:inkscape="http://www.inkscape.org/namespaces/inkscape"
   version="1.1"
   id="Capa_1"
   x="0px"
   y="0px"
   viewBox="0 0 20.766 20.766"
   style="enable-background:new 0 0 20.766 20.766;"
   xml:space="preserve"
   sodipodi:docname="PowerPlugs.svg"
   inkscape:version="1.0.1 (3bc2e813f5, 2020-09-07)"><metadata
   id="metadata47"><rdf:RDF><cc:Work
       rdf:about=""><dc:format>image/svg+xml</dc:format><dc:type
         rdf:resource="http://purl.org/dc/dcmitype/StillImage" /></cc:Work></rdf:RDF></metadata><defs
   id="defs45" /><sodipodi:namedview
   pagecolor="#ffffff"
   bordercolor="#666666"
   borderopacity="1"
   objecttolerance="10"
   gridtolerance="10"
   guidetolerance="10"
   inkscape:pageopacity="0"
   inkscape:pageshadow="2"
   inkscape:window-width="1920"
   inkscape:window-height="1016"
   id="namedview43"
   showgrid="false"
   inkscape:zoom="12.730878"
   inkscape:cx="16.83338"
   inkscape:cy="17.55108"
   inkscape:window-x="0"
   inkscape:window-y="27"
   inkscape:window-maximized="1"
   inkscape:current-layer="Capa_1"
   inkscape:document-rotation="0" />

<g
   id="g12">
</g>
<g
   id="g14">
</g>
<g
   id="g16">
</g>
<g
   id="g18">
</g>
<g
   id="g20">
</g>
<g
   id="g22">
</g>
<g
   id="g24">
</g>
<g
   id="g26">
</g>
<g
   id="g28">
</g>
<g
   id="g30">
</g>
<g
   id="g32">
</g>
<g
   id="g34">
</g>
<g
   id="g36">
</g>
<g
   id="g38">
</g>
<g
   id="g40">
</g>
<path
   id="path879"
   style="color:#000000;font-style:normal;font-variant:normal;font-weight:normal;font-stretch:normal;font-size:medium;line-height:normal;font-family:sans-serif;font-variant-ligatures:normal;font-variant-position:normal;font-variant-caps:normal;font-variant-numeric:normal;font-variant-alternates:normal;font-variant-east-asian:normal;font-feature-settings:normal;font-variation-settings:normal;text-indent:0;text-align:start;text-decoration:none;text-decoration-line:none;text-decoration-style:solid;text-decoration-color:#000000;letter-spacing:normal;word-spacing:normal;text-transform:none;writing-mode:lr-tb;direction:ltr;text-orientation:mixed;dominant-baseline:auto;baseline-shift:baseline;text-anchor:start;white-space:normal;shape-padding:0;shape-margin:0;inline-size:0;clip-rule:nonzero;display:inline;overflow:visible;visibility:visible;isolation:auto;mix-blend-mode:normal;color-interpolation:sRGB;color-interpolation-filters:linearRGB;solid-color:#000000;solid-opacity:1;vector-effect:none;fill:#1a3282;fill-opacity:1;fill-rule:nonzero;stroke:none;stroke-width:1.0241;stroke-linecap:round;stroke-linejoin:round;stroke-miterlimit:4;stroke-dasharray:none;stroke-dashoffset:0;stroke-opacity:1;color-rendering:auto;image-rendering:auto;shape-rendering:auto;text-rendering:auto;enable-background:accumulate;stop-color:#000000"
   d="M 10.455078 0.7421875 C 10.147638 0.74377842 9.8388642 0.75978701 9.5273438 0.79101562 C 4.5430146 1.2906736 0.73994557 5.4945969 0.7421875 10.503906 C 0.74442293 15.499265 4.5298208 19.688743 9.4941406 20.203125 L 9.4941406 20.208984 C 9.4941406 20.208984 10.407094 20.372811 10.916016 19.634766 C 11.080192 19.396675 11.113029 19.173327 11.144531 18.935547 C 11.176034 18.697767 11.184195 18.44806 11.183594 18.216797 C 11.183205 18.067146 11.175739 18.062736 11.169922 17.9375 L 11.267578 17.9375 C 12.0468 17.9375 12.689453 17.294847 12.689453 16.515625 C 12.689453 16.34954 12.655054 16.191745 12.601562 16.042969 C 13.781597 15.872269 14.697266 14.862564 14.697266 13.636719 L 14.697266 9.5078125 L 15.410156 9.5078125 A 0.5 0.5 0 0 0 15.910156 9.0078125 A 0.5 0.5 0 0 0 15.410156 8.5078125 L 13.054688 8.5078125 L 13.054688 4.6308594 A 0.5 0.5 0 0 0 12.554688 4.1308594 A 0.5 0.5 0 0 0 12.054688 4.6308594 L 12.054688 8.5078125 L 8.9726562 8.5078125 L 8.9726562 4.6308594 A 0.5 0.5 0 0 0 8.4726562 4.1308594 A 0.5 0.5 0 0 0 7.9726562 4.6308594 L 7.9726562 8.5078125 L 6.0117188 8.5078125 A 0.5 0.5 0 0 0 5.5117188 9.0078125 A 0.5 0.5 0 0 0 6.0117188 9.5078125 L 6.7011719 9.5078125 L 6.7011719 13.636719 C 6.7011719 14.886892 7.6551112 15.911357 8.8691406 16.050781 C 8.8173649 16.197408 8.7832031 16.35235 8.7832031 16.515625 C 8.7832031 17.282828 9.4069848 17.914193 10.169922 17.933594 C 10.176029 18.056564 10.183199 18.068997 10.183594 18.220703 C 10.184122 18.423993 10.176444 18.635568 10.154297 18.802734 C 10.13215 18.969901 10.074899 19.095697 10.09375 19.068359 C 10.024443 19.16887 9.6376958 19.207676 9.6035156 19.210938 C 5.137097 18.751192 1.7461516 14.997391 1.7441406 10.503906 C 1.7421249 5.9998346 5.1453425 2.236372 9.6269531 1.7871094 C 14.108563 1.3378468 18.191915 4.3507776 19.083984 8.765625 C 19.976053 13.180472 17.38257 17.543084 13.078125 18.869141 A 0.5 0.5 0 0 0 12.746094 19.494141 A 0.5 0.5 0 0 0 13.373047 19.826172 C 16.963514 18.720068 19.488971 15.700416 20.109375 12.189453 C 20.316176 11.019132 20.312487 9.7958786 20.064453 8.5683594 C 19.134326 3.9651623 15.066677 0.71832367 10.455078 0.7421875 z M 10.824219 9.2285156 L 10.707031 11.449219 L 12.109375 11.449219 L 10.257812 15.216797 L 10.255859 12.888672 L 9.1269531 12.888672 L 10.824219 9.2285156 z " /></svg>
