<?xml version="1.0" encoding="UTF-8" standalone="no"?>
<svg
   xmlns:dc="http://purl.org/dc/elements/1.1/"
   xmlns:cc="http://creativecommons.org/ns#"
   xmlns:rdf="http://www.w3.org/1999/02/22-rdf-syntax-ns#"
   xmlns:svg="http://www.w3.org/2000/svg"
   xmlns="http://www.w3.org/2000/svg"
   xmlns:sodipodi="http://sodipodi.sourceforge.net/DTD/sodipodi-0.dtd"
   xmlns:inkscape="http://www.inkscape.org/namespaces/inkscape"
   version="1.1"
   id="Capa_1"
   x="0px"
   y="0px"
   viewBox="0 0 20.766 20.766"
   style="enable-background:new 0 0 20.766 20.766;"
   xml:space="preserve"
   sodipodi:docname="ReadingLamps.svg"
   inkscape:version="1.0.1 (3bc2e813f5, 2020-09-07)"><metadata
   id="metadata47"><rdf:RDF><cc:Work
       rdf:about=""><dc:format>image/svg+xml</dc:format><dc:type
         rdf:resource="http://purl.org/dc/dcmitype/StillImage" /></cc:Work></rdf:RDF></metadata><defs
   id="defs45" /><sodipodi:namedview
   pagecolor="#ffffff"
   bordercolor="#666666"
   borderopacity="1"
   objecttolerance="10"
   gridtolerance="10"
   guidetolerance="10"
   inkscape:pageopacity="0"
   inkscape:pageshadow="2"
   inkscape:window-width="1920"
   inkscape:window-height="1016"
   id="namedview43"
   showgrid="false"
   inkscape:zoom="12.123129"
   inkscape:cx="33.136084"
   inkscape:cy="27.037408"
   inkscape:window-x="0"
   inkscape:window-y="27"
   inkscape:window-maximized="1"
   inkscape:current-layer="Capa_1" />

<g
   id="g12">
</g>
<g
   id="g14">
</g>
<g
   id="g16">
</g>
<g
   id="g18">
</g>
<g
   id="g20">
</g>
<g
   id="g22">
</g>
<g
   id="g24">
</g>
<g
   id="g26">
</g>
<g
   id="g28">
</g>
<g
   id="g30">
</g>
<g
   id="g32">
</g>
<g
   id="g34">
</g>
<g
   id="g36">
</g>
<g
   id="g38">
</g>
<g
   id="g40">
</g>
<path
   id="path883"
   style="color:#000000;font-style:normal;font-variant:normal;font-weight:normal;font-stretch:normal;font-size:medium;line-height:normal;font-family:sans-serif;font-variant-ligatures:normal;font-variant-position:normal;font-variant-caps:normal;font-variant-numeric:normal;font-variant-alternates:normal;font-variant-east-asian:normal;font-feature-settings:normal;font-variation-settings:normal;text-indent:0;text-align:start;text-decoration:none;text-decoration-line:none;text-decoration-style:solid;text-decoration-color:#000000;letter-spacing:normal;word-spacing:normal;text-transform:none;writing-mode:lr-tb;direction:ltr;text-orientation:mixed;dominant-baseline:auto;baseline-shift:baseline;text-anchor:start;white-space:normal;shape-padding:0;shape-margin:0;inline-size:0;clip-rule:nonzero;display:inline;overflow:visible;visibility:visible;opacity:1;isolation:auto;mix-blend-mode:normal;color-interpolation:sRGB;color-interpolation-filters:linearRGB;solid-color:#000000;solid-opacity:1;vector-effect:none;fill:#1a3282;fill-opacity:1;fill-rule:nonzero;stroke:none;stroke-width:1px;stroke-linecap:round;stroke-linejoin:miter;stroke-miterlimit:4;stroke-dasharray:none;stroke-dashoffset:0;stroke-opacity:1;color-rendering:auto;image-rendering:auto;shape-rendering:auto;text-rendering:auto;enable-background:accumulate;stop-color:#000000;stop-opacity:1"
   d="M 2.2402344 3.0175781 A 0.5 0.5 0 0 0 1.7402344 3.5175781 A 0.5 0.5 0 0 0 2.2402344 4.0175781 L 5.3671875 4.0175781 C 5.0520402 4.6900487 4.8632812 5.4326333 4.8632812 6.2226562 C 4.8632817 9.1075036 7.2128094 11.457031 10.097656 11.457031 C 12.982504 11.457031 15.332031 9.1075036 15.332031 6.2226562 C 15.332031 5.4326332 15.143272 4.6900487 14.828125 4.0175781 L 17.794922 4.0175781 A 0.5 0.5 0 0 0 18.294922 3.5175781 A 0.5 0.5 0 0 0 17.794922 3.0175781 L 2.2402344 3.0175781 z M 6.4960938 4.0175781 L 13.699219 4.0175781 C 14.093384 4.661106 14.332031 5.4102544 14.332031 6.2226562 C 14.332031 8.5670636 12.442064 10.457031 10.097656 10.457031 C 7.7532495 10.457031 5.8632815 8.5670636 5.8632812 6.2226562 C 5.8632812 5.4102543 6.1019282 4.661106 6.4960938 4.0175781 z M 7.0644531 5.7089844 A 0.5 0.5 0 0 0 6.5644531 6.1445312 C 6.5644531 6.1445312 6.4207327 7.1986781 7.1054688 8.1464844 C 7.7504321 9.0392378 8.5761719 9.3535156 8.5761719 9.3535156 A 0.5 0.5 0 0 0 9.21875 9.0585938 A 0.5 0.5 0 0 0 8.9238281 8.4160156 C 8.9238281 8.4160156 8.398247 8.2280478 7.9160156 7.5605469 C 7.4735568 6.9480987 7.5546875 6.2734375 7.5546875 6.2734375 A 0.5 0.5 0 0 0 7.1230469 5.7128906 A 0.5 0.5 0 0 0 7.0644531 5.7089844 z M 3.9609375 8.6015625 A 0.5 0.5 0 0 0 3.7226562 8.6679688 L 1.2109375 10.119141 A 0.5 0.5 0 0 0 1.0273438 10.800781 A 0.5 0.5 0 0 0 1.7109375 10.984375 L 4.2226562 9.5332031 A 0.5 0.5 0 0 0 4.40625 8.8515625 A 0.5 0.5 0 0 0 3.9609375 8.6015625 z M 16.662109 8.6015625 A 0.5 0.5 0 0 0 16.263672 8.8515625 A 0.5 0.5 0 0 0 16.447266 9.5332031 L 18.960938 10.984375 A 0.5 0.5 0 0 0 19.642578 10.800781 A 0.5 0.5 0 0 0 19.460938 10.119141 L 16.947266 8.6679688 A 0.5 0.5 0 0 0 16.662109 8.6015625 z M 6.6464844 11.244141 A 0.5 0.5 0 0 0 6.2480469 11.494141 L 3.53125 16.199219 A 0.5 0.5 0 0 0 3.7148438 16.882812 A 0.5 0.5 0 0 0 4.3964844 16.699219 L 7.1132812 11.994141 A 0.5 0.5 0 0 0 6.9316406 11.310547 A 0.5 0.5 0 0 0 6.7050781 11.244141 A 0.5 0.5 0 0 0 6.6464844 11.244141 z M 14.074219 11.244141 A 0.5 0.5 0 0 0 13.835938 11.310547 A 0.5 0.5 0 0 0 13.654297 11.994141 L 16.371094 16.699219 A 0.5 0.5 0 0 0 17.052734 16.882812 A 0.5 0.5 0 0 0 17.236328 16.199219 L 14.519531 11.494141 A 0.5 0.5 0 0 0 14.074219 11.244141 z M 10.378906 12.318359 A 0.5 0.5 0 0 0 9.8789062 12.818359 L 9.8789062 18.486328 A 0.5 0.5 0 0 0 10.378906 18.986328 A 0.5 0.5 0 0 0 10.878906 18.486328 L 10.878906 12.818359 A 0.5 0.5 0 0 0 10.378906 12.318359 z " /></svg>
