<?xml version="1.0" encoding="UTF-8" standalone="no"?>
<svg
   xmlns:dc="http://purl.org/dc/elements/1.1/"
   xmlns:cc="http://creativecommons.org/ns#"
   xmlns:rdf="http://www.w3.org/1999/02/22-rdf-syntax-ns#"
   xmlns:svg="http://www.w3.org/2000/svg"
   xmlns="http://www.w3.org/2000/svg"
   xmlns:sodipodi="http://sodipodi.sourceforge.net/DTD/sodipodi-0.dtd"
   xmlns:inkscape="http://www.inkscape.org/namespaces/inkscape"
   version="1.1"
   id="Capa_1"
   x="0px"
   y="0px"
   viewBox="0 0 20.766 20.766"
   style="enable-background:new 0 0 20.766 20.766;"
   xml:space="preserve"
   sodipodi:docname="SatTV.svg"
   inkscape:version="1.0.1 (3bc2e813f5, 2020-09-07)"><metadata
   id="metadata47"><rdf:RDF><cc:Work
       rdf:about=""><dc:format>image/svg+xml</dc:format><dc:type
         rdf:resource="http://purl.org/dc/dcmitype/StillImage" /></cc:Work></rdf:RDF></metadata><defs
   id="defs45" /><sodipodi:namedview
   pagecolor="#ffffff"
   bordercolor="#666666"
   borderopacity="1"
   objecttolerance="10"
   gridtolerance="10"
   guidetolerance="10"
   inkscape:pageopacity="0"
   inkscape:pageshadow="2"
   inkscape:window-width="1920"
   inkscape:window-height="1016"
   id="namedview43"
   showgrid="false"
   inkscape:zoom="12.388335"
   inkscape:cx="33.53053"
   inkscape:cy="21.066902"
   inkscape:window-x="0"
   inkscape:window-y="27"
   inkscape:window-maximized="1"
   inkscape:current-layer="Capa_1" />

<g
   id="g12">
</g>
<g
   id="g14">
</g>
<g
   id="g16">
</g>
<g
   id="g18">
</g>
<g
   id="g20">
</g>
<g
   id="g22">
</g>
<g
   id="g24">
</g>
<g
   id="g26">
</g>
<g
   id="g28">
</g>
<g
   id="g30">
</g>
<g
   id="g32">
</g>
<g
   id="g34">
</g>
<g
   id="g36">
</g>
<g
   id="g38">
</g>
<g
   id="g40">
</g>
<path
   id="path893"
   style="color:#000000;font-style:normal;font-variant:normal;font-weight:normal;font-stretch:normal;font-size:medium;line-height:normal;font-family:sans-serif;font-variant-ligatures:normal;font-variant-position:normal;font-variant-caps:normal;font-variant-numeric:normal;font-variant-alternates:normal;font-variant-east-asian:normal;font-feature-settings:normal;font-variation-settings:normal;text-indent:0;text-align:start;text-decoration:none;text-decoration-line:none;text-decoration-style:solid;text-decoration-color:#000000;letter-spacing:normal;word-spacing:normal;text-transform:none;writing-mode:lr-tb;direction:ltr;text-orientation:mixed;dominant-baseline:auto;baseline-shift:baseline;text-anchor:start;white-space:normal;shape-padding:0;shape-margin:0;inline-size:0;clip-rule:nonzero;display:inline;overflow:visible;visibility:visible;opacity:1;isolation:auto;mix-blend-mode:normal;color-interpolation:sRGB;color-interpolation-filters:linearRGB;solid-color:#000000;solid-opacity:1;vector-effect:none;fill:#1a3282;fill-opacity:1;fill-rule:nonzero;stroke:none;stroke-width:1.134;stroke-linecap:round;stroke-linejoin:round;stroke-miterlimit:4;stroke-dasharray:none;stroke-dashoffset:0;stroke-opacity:1;color-rendering:auto;image-rendering:auto;shape-rendering:auto;text-rendering:auto;enable-background:accumulate;stop-color:#000000;stop-opacity:1"
   d="M 15.511719 0.90039062 C 15.387286 0.90639362 15.269576 0.9586314 15.181641 1.046875 L 10.283203 5.9433594 L 7.8320312 3.4902344 C 7.6367778 3.2950228 7.3202535 3.2950228 7.125 3.4902344 C 6.9297884 3.6854879 6.9297884 4.0020121 7.125 4.1972656 L 9.5625 6.6367188 L 1.6640625 6.6367188 C 1.3506305 6.6370768 1.0969362 6.8916471 1.0976562 7.2050781 L 1.0976562 19.105469 C 1.0980143 19.418138 1.3513935 19.671517 1.6640625 19.671875 L 19.464844 19.671875 C 19.777513 19.671517 20.030892 19.418138 20.03125 19.105469 L 20.03125 7.2050781 C 20.03197 6.8916471 19.778276 6.6370768 19.464844 6.6367188 L 11.003906 6.6367188 L 15.888672 1.7539062 C 16.083884 1.5586528 16.083884 1.2421285 15.888672 1.046875 C 15.789252 0.9471429 15.652392 0.89395796 15.511719 0.90039062 z M 2.2304688 7.7714844 L 16.521484 7.7714844 L 16.521484 18.537109 L 2.2304688 18.537109 L 2.2304688 7.7714844 z M 9.5234375 8.5957031 C 8.9948437 8.5984969 8.6464844 8.6796875 8.6464844 8.6796875 A 0.375 0.375 0 0 0 8.3671875 9.1289062 A 0.375 0.375 0 0 0 8.8164062 9.4082031 C 8.8164062 9.4082031 10.866262 8.9246161 12.357422 10.490234 C 13.87094 12.079327 13.599609 14.048828 13.599609 14.048828 A 0.375 0.375 0 0 0 13.919922 14.470703 A 0.375 0.375 0 0 0 14.34375 14.150391 C 14.34375 14.150391 14.660307 11.82045 12.900391 9.9726562 C 12.009254 9.0370219 10.946389 8.7145079 10.105469 8.625 C 9.8952387 8.602623 9.6996354 8.5947719 9.5234375 8.5957031 z M 18.25 9.65625 C 18.940357 9.6562494 19.500001 10.215893 19.5 10.90625 C 19.5 11.596606 18.940356 12.156251 18.25 12.15625 C 17.559644 12.15625 17 11.596606 17 10.90625 C 16.999999 10.215894 17.559644 9.65625 18.25 9.65625 z M 6.2148438 10.666016 A 0.50005 0.50005 0 0 0 5.8789062 10.794922 C 4.7487557 11.816663 4.2466284 13.365859 4.5664062 14.855469 C 4.8861847 16.345079 5.9797587 17.551663 7.4296875 18.019531 C 8.8796164 18.4874 10.471412 18.146741 11.601562 17.125 A 0.50005 0.50005 0 0 0 11.636719 16.417969 L 10.224609 14.857422 C 10.450219 14.4831 10.535667 14.032842 10.441406 13.59375 C 10.31093 12.985958 9.8650386 12.493635 9.2734375 12.302734 C 8.8459835 12.164802 8.3912314 12.205665 7.9960938 12.392578 L 6.5839844 10.830078 A 0.50005 0.50005 0 0 0 6.2148438 10.666016 z M 9.1113281 10.742188 C 8.9470598 10.751911 8.8476562 10.767578 8.8476562 10.767578 A 0.25 0.25 0 0 0 8.6347656 11.050781 A 0.25 0.25 0 0 0 8.9179688 11.261719 C 8.9179688 11.261719 10.324556 11.097992 11.044922 11.818359 C 11.770075 12.543512 11.578125 13.845703 11.578125 13.845703 A 0.25 0.25 0 0 0 11.783203 14.134766 A 0.25 0.25 0 0 0 12.070312 13.929688 C 12.070312 13.929688 12.354198 12.420605 11.398438 11.464844 C 10.918164 10.98457 10.281556 10.810209 9.7636719 10.755859 C 9.5047296 10.728685 9.2755965 10.732464 9.1113281 10.742188 z M 6.2675781 11.970703 L 8.3671875 14.294922 L 10.46875 16.617188 C 9.6533966 17.14305 8.6775383 17.372073 7.7363281 17.068359 C 6.6248762 16.709712 5.7900499 15.786401 5.5449219 14.644531 C 5.337341 13.677563 5.6624334 12.729078 6.2675781 11.970703 z M 8.8808594 12.742188 C 8.9605902 12.740486 9.0400429 12.75119 9.1210938 12.777344 C 9.5434567 12.913634 9.8599737 13.263344 9.953125 13.697266 C 10.005553 13.941488 9.9097945 14.163228 9.7890625 14.375 L 9.109375 13.623047 L 8.4316406 12.873047 C 8.5787541 12.807725 8.7264594 12.745482 8.8808594 12.742188 z M 18.25 13.65625 C 18.940356 13.656249 19.5 14.215894 19.5 14.90625 C 19.5 15.596606 18.940356 16.156251 18.25 16.15625 C 17.559644 16.15625 17 15.596606 17 14.90625 C 17 14.215894 17.559644 13.65625 18.25 13.65625 z " /></svg>
