<?xml version="1.0" encoding="UTF-8" standalone="no"?>
<svg
   xmlns:dc="http://purl.org/dc/elements/1.1/"
   xmlns:cc="http://creativecommons.org/ns#"
   xmlns:rdf="http://www.w3.org/1999/02/22-rdf-syntax-ns#"
   xmlns:svg="http://www.w3.org/2000/svg"
   xmlns="http://www.w3.org/2000/svg"
   xmlns:sodipodi="http://sodipodi.sourceforge.net/DTD/sodipodi-0.dtd"
   xmlns:inkscape="http://www.inkscape.org/namespaces/inkscape"
   version="1.1"
   id="Capa_1"
   x="0px"
   y="0px"
   viewBox="0 0 20.766 20.766"
   style="enable-background:new 0 0 20.766 20.766;"
   xml:space="preserve"
   sodipodi:docname="SeatRadio.svg"
   inkscape:version="1.0.1 (3bc2e813f5, 2020-09-07)"><metadata
   id="metadata47"><rdf:RDF><cc:Work
       rdf:about=""><dc:format>image/svg+xml</dc:format><dc:type
         rdf:resource="http://purl.org/dc/dcmitype/StillImage" /></cc:Work></rdf:RDF></metadata><defs
   id="defs45" /><sodipodi:namedview
   pagecolor="#ffffff"
   bordercolor="#666666"
   borderopacity="1"
   objecttolerance="10"
   gridtolerance="10"
   guidetolerance="10"
   inkscape:pageopacity="0"
   inkscape:pageshadow="2"
   inkscape:window-width="1920"
   inkscape:window-height="1016"
   id="namedview43"
   showgrid="false"
   inkscape:zoom="13.72545"
   inkscape:cx="31.372964"
   inkscape:cy="22.852947"
   inkscape:window-x="0"
   inkscape:window-y="27"
   inkscape:window-maximized="1"
   inkscape:current-layer="Capa_1"
   inkscape:document-rotation="0" />

<g
   id="g12">
</g>
<g
   id="g14">
</g>
<g
   id="g16">
</g>
<g
   id="g18">
</g>
<g
   id="g20">
</g>
<g
   id="g22">
</g>
<g
   id="g24">
</g>
<g
   id="g26">
</g>
<g
   id="g28">
</g>
<g
   id="g30">
</g>
<g
   id="g32">
</g>
<g
   id="g34">
</g>
<g
   id="g36">
</g>
<g
   id="g38">
</g>
<g
   id="g40">
</g>
<path
   id="path883-3"
   style="color:#000000;font-style:normal;font-variant:normal;font-weight:normal;font-stretch:normal;font-size:medium;line-height:normal;font-family:sans-serif;font-variant-ligatures:normal;font-variant-position:normal;font-variant-caps:normal;font-variant-numeric:normal;font-variant-alternates:normal;font-variant-east-asian:normal;font-feature-settings:normal;font-variation-settings:normal;text-indent:0;text-align:start;text-decoration:none;text-decoration-line:none;text-decoration-style:solid;text-decoration-color:#000000;letter-spacing:normal;word-spacing:normal;text-transform:none;writing-mode:lr-tb;direction:ltr;text-orientation:mixed;dominant-baseline:auto;baseline-shift:baseline;text-anchor:start;white-space:normal;shape-padding:0;shape-margin:0;inline-size:0;clip-rule:nonzero;display:inline;overflow:visible;visibility:visible;opacity:1;isolation:auto;mix-blend-mode:normal;color-interpolation:sRGB;color-interpolation-filters:linearRGB;solid-color:#000000;solid-opacity:1;vector-effect:none;fill:#1a3282;fill-opacity:1;fill-rule:nonzero;stroke:none;stroke-width:1;stroke-linecap:round;stroke-linejoin:round;stroke-miterlimit:4;stroke-dasharray:none;stroke-dashoffset:0;stroke-opacity:1;color-rendering:auto;image-rendering:auto;shape-rendering:auto;text-rendering:auto;enable-background:accumulate;stop-color:#000000;stop-opacity:1"
   d="M 1.5820312 2.78125 C 1.3059002 2.781277 1.0820592 3.005119 1.0820312 3.28125 L 1.0820312 18.107422 C 1.0820592 18.383553 1.3059003 18.607395 1.5820312 18.607422 L 19.333984 18.607422 C 19.610115 18.607395 19.833956 18.383553 19.833984 18.107422 L 19.833984 3.28125 C 19.833956 3.005119 19.610115 2.781277 19.333984 2.78125 L 1.5820312 2.78125 z M 2.0820312 3.78125 L 18.833984 3.78125 L 18.833984 16.210938 L 2.0820312 16.210938 L 2.0820312 3.78125 z M 11.046875 7.5644531 C 11.015958 7.5652756 10.987135 7.5775256 10.957031 7.5839844 A 0.5 0.5 0 0 0 10.902344 7.5800781 A 0.5 0.5 0 0 0 10.402344 8.0800781 L 10.402344 12.904297 A 0.5 0.5 0 0 0 10.902344 13.404297 A 0.5 0.5 0 0 0 11.402344 12.904297 L 11.402344 10.072266 L 12.701172 13.017578 C 12.873034 13.410749 13.427736 13.419084 13.611328 13.03125 L 14.998047 10.123047 L 14.998047 12.904297 A 0.5 0.5 0 0 0 15.498047 13.404297 A 0.5 0.5 0 0 0 15.998047 12.904297 L 15.998047 8.0800781 A 0.5 0.5 0 0 0 15.509766 7.5800781 C 15.293817 7.5420944 15.071339 7.6417799 14.972656 7.8496094 L 13.177734 11.619141 L 11.519531 7.8613281 C 11.437011 7.6754561 11.250141 7.5580811 11.046875 7.5644531 z M 5.3476562 7.6640625 A 0.50005 0.50005 0 0 0 4.8476562 8.1640625 L 4.8476562 12.904297 A 0.5 0.5 0 0 0 5.3476562 13.404297 A 0.5 0.5 0 0 0 5.8476562 12.904297 L 5.8476562 11.03125 L 7.7636719 11.03125 A 0.5 0.5 0 0 0 8.2636719 10.53125 A 0.5 0.5 0 0 0 7.7636719 10.03125 L 5.8476562 10.03125 L 5.8476562 8.6640625 L 9.2089844 8.6640625 A 0.5 0.5 0 0 0 9.7089844 8.1640625 A 0.5 0.5 0 0 0 9.2089844 7.6640625 L 5.3476562 7.6640625 z M 3.328125 16.699219 C 3.332725 16.699177 3.3372269 16.699177 3.3417969 16.699219 C 3.7560099 16.699219 4.0917969 17.035006 4.0917969 17.449219 C 4.0917969 17.863432 3.7560099 18.199219 3.3417969 18.199219 C 2.9275829 18.199219 2.5917969 17.863433 2.5917969 17.449219 C 2.5917289 17.040286 2.91926 16.706674 3.328125 16.699219 z M 5.0253906 17.148438 L 6.8339844 17.148438 L 6.8339844 17.730469 L 5.0253906 17.730469 L 5.0253906 17.148438 z M 7.7871094 17.148438 L 9.59375 17.148438 L 9.59375 17.730469 L 7.7871094 17.730469 L 7.7871094 17.148438 z M 10.546875 17.148438 L 12.353516 17.148438 L 12.353516 17.730469 L 10.546875 17.730469 L 10.546875 17.148438 z M 13.306641 17.148438 L 15.115234 17.148438 L 15.115234 17.730469 L 13.306641 17.730469 L 13.306641 17.148438 z M 16.068359 17.148438 L 17.875 17.148438 L 17.875 17.730469 L 16.068359 17.730469 L 16.068359 17.148438 z " /></svg>
