<?xml version="1.0" encoding="UTF-8" standalone="no"?>
<svg
   xmlns:dc="http://purl.org/dc/elements/1.1/"
   xmlns:cc="http://creativecommons.org/ns#"
   xmlns:rdf="http://www.w3.org/1999/02/22-rdf-syntax-ns#"
   xmlns:svg="http://www.w3.org/2000/svg"
   xmlns="http://www.w3.org/2000/svg"
   xmlns:sodipodi="http://sodipodi.sourceforge.net/DTD/sodipodi-0.dtd"
   xmlns:inkscape="http://www.inkscape.org/namespaces/inkscape"
   version="1.1"
   id="Capa_1"
   x="0px"
   y="0px"
   viewBox="0 0 20.766 20.766"
   style="enable-background:new 0 0 20.766 20.766;"
   xml:space="preserve"
   sodipodi:docname="SeatMedia.svg"
   inkscape:version="1.0.1 (3bc2e813f5, 2020-09-07)"><metadata
   id="metadata47"><rdf:RDF><cc:Work
       rdf:about=""><dc:format>image/svg+xml</dc:format><dc:type
         rdf:resource="http://purl.org/dc/dcmitype/StillImage" /></cc:Work></rdf:RDF></metadata><defs
   id="defs45" /><sodipodi:namedview
   pagecolor="#ffffff"
   bordercolor="#666666"
   borderopacity="1"
   objecttolerance="10"
   gridtolerance="10"
   guidetolerance="10"
   inkscape:pageopacity="0"
   inkscape:pageshadow="2"
   inkscape:window-width="1920"
   inkscape:window-height="1016"
   id="namedview43"
   showgrid="false"
   inkscape:zoom="9.1512215"
   inkscape:cx="65.47194"
   inkscape:cy="42.703293"
   inkscape:window-x="0"
   inkscape:window-y="27"
   inkscape:window-maximized="1"
   inkscape:current-layer="Capa_1"
   inkscape:document-rotation="0" />

<g
   id="g12">
</g>
<g
   id="g14">
</g>
<g
   id="g16">
</g>
<g
   id="g18">
</g>
<g
   id="g20">
</g>
<g
   id="g22">
</g>
<g
   id="g24">
</g>
<g
   id="g26">
</g>
<g
   id="g28">
</g>
<g
   id="g30">
</g>
<g
   id="g32">
</g>
<g
   id="g34">
</g>
<g
   id="g36">
</g>
<g
   id="g38">
</g>
<g
   id="g40">
</g>
<path
   id="path883"
   style="color:#000000;font-style:normal;font-variant:normal;font-weight:normal;font-stretch:normal;font-size:medium;line-height:normal;font-family:sans-serif;font-variant-ligatures:normal;font-variant-position:normal;font-variant-caps:normal;font-variant-numeric:normal;font-variant-alternates:normal;font-variant-east-asian:normal;font-feature-settings:normal;font-variation-settings:normal;text-indent:0;text-align:start;text-decoration:none;text-decoration-line:none;text-decoration-style:solid;text-decoration-color:#000000;letter-spacing:normal;word-spacing:normal;text-transform:none;writing-mode:lr-tb;direction:ltr;text-orientation:mixed;dominant-baseline:auto;baseline-shift:baseline;text-anchor:start;white-space:normal;shape-padding:0;shape-margin:0;inline-size:0;clip-rule:nonzero;display:inline;overflow:visible;visibility:visible;opacity:1;isolation:auto;mix-blend-mode:normal;color-interpolation:sRGB;color-interpolation-filters:linearRGB;solid-color:#000000;solid-opacity:1;vector-effect:none;fill:#1a3282;fill-opacity:1;fill-rule:nonzero;stroke:none;stroke-width:1;stroke-linecap:round;stroke-linejoin:round;stroke-miterlimit:4;stroke-dasharray:none;stroke-dashoffset:0;stroke-opacity:1;color-rendering:auto;image-rendering:auto;shape-rendering:auto;text-rendering:auto;enable-background:accumulate;stop-color:#000000;stop-opacity:1"
   d="m 1.5820312,2.78125 c -0.2761309,2.76e-5 -0.4999722,0.2238691 -0.5,0.5 v 14.826172 c 2.76e-5,0.276131 0.2238691,0.499973 0.5,0.5 H 19.333984 c 0.276131,-2.7e-5 0.499972,-0.223869 0.5,-0.5 V 3.28125 c -2.8e-5,-0.2761309 -0.223869,-0.4999724 -0.5,-0.5 z m 0.5,1 H 18.833984 V 16.210938 H 2.0820312 Z m 6.2753907,2.6855469 c -0.2661681,0.013559 -0.4749279,0.233487 -0.4746094,0.5 v 6.1386721 c 0.00112,0.384252 0.4171943,0.623711 0.75,0.43164 l 5.1914065,-2.996093 c 0.330138,-0.189745 0.335516,-0.664148 0.0098,-0.8613285 L 8.6425781,6.5390625 C 8.5569217,6.4869277 8.4575697,6.4617494 8.3574219,6.4667969 Z M 3.328125,16.699219 c 0.00456,-4.2e-5 0.00911,-4.2e-5 0.013672,0 0.4142136,0 0.75,0.335786 0.75,0.75 0,0.414214 -0.3357864,0.75 -0.75,0.75 -0.4142136,0 -0.75,-0.335786 -0.75,-0.75 -6.8e-5,-0.408933 0.3274635,-0.742545 0.7363281,-0.75 z m 1.6972656,0.449219 h 1.8085938 v 0.582031 H 5.0253906 Z m 2.7617188,0 H 9.59375 v 0.582031 H 7.7871094 Z m 2.7597656,0 h 1.806641 v 0.582031 h -1.806641 z m 2.759766,0 h 1.808593 v 0.582031 h -1.808593 z m 2.761718,0 H 17.875 v 0.582031 h -1.806641 z"
   sodipodi:nodetypes="cccccccccccccccccsccccccssccccccccccccccccccccccccccc" /></svg>
