<?xml version="1.0" encoding="UTF-8" standalone="no"?>
<svg
   xmlns:dc="http://purl.org/dc/elements/1.1/"
   xmlns:cc="http://creativecommons.org/ns#"
   xmlns:rdf="http://www.w3.org/1999/02/22-rdf-syntax-ns#"
   xmlns:svg="http://www.w3.org/2000/svg"
   xmlns="http://www.w3.org/2000/svg"
   xmlns:sodipodi="http://sodipodi.sourceforge.net/DTD/sodipodi-0.dtd"
   xmlns:inkscape="http://www.inkscape.org/namespaces/inkscape"
   version="1.1"
   id="Capa_1"
   x="0px"
   y="0px"
   viewBox="0 0 20.766 20.766"
   style="enable-background:new 0 0 20.766 20.766;"
   xml:space="preserve"
   sodipodi:docname="Soccer.svg"
   inkscape:version="1.0.1 (3bc2e813f5, 2020-09-07)"><metadata
   id="metadata47"><rdf:RDF><cc:Work
       rdf:about=""><dc:format>image/svg+xml</dc:format><dc:type
         rdf:resource="http://purl.org/dc/dcmitype/StillImage" /></cc:Work></rdf:RDF></metadata><defs
   id="defs45" /><sodipodi:namedview
   pagecolor="#ffffff"
   bordercolor="#666666"
   borderopacity="1"
   objecttolerance="10"
   gridtolerance="10"
   guidetolerance="10"
   inkscape:pageopacity="0"
   inkscape:pageshadow="2"
   inkscape:window-width="1920"
   inkscape:window-height="1016"
   id="namedview43"
   showgrid="false"
   inkscape:zoom="8.0456711"
   inkscape:cx="-16.527943"
   inkscape:cy="3.8709837"
   inkscape:window-x="0"
   inkscape:window-y="27"
   inkscape:window-maximized="1"
   inkscape:current-layer="Capa_1" />

<g
   id="g12">
</g>
<g
   id="g14">
</g>
<g
   id="g16">
</g>
<g
   id="g18">
</g>
<g
   id="g20">
</g>
<g
   id="g22">
</g>
<g
   id="g24">
</g>
<g
   id="g26">
</g>
<g
   id="g28">
</g>
<g
   id="g30">
</g>
<g
   id="g32">
</g>
<g
   id="g34">
</g>
<g
   id="g36">
</g>
<g
   id="g38">
</g>
<g
   id="g40">
</g>
<path
   id="path886"
   style="fill:#1a3282;fill-opacity:1;stroke-width:0.0669849"
   d="M 1.5820312 2.78125 C 1.3059002 2.7812776 1.0820592 3.0051191 1.0820312 3.28125 L 1.0820312 18.107422 C 1.0820592 18.383553 1.3059003 18.607395 1.5820312 18.607422 L 19.333984 18.607422 C 19.610115 18.607395 19.833956 18.383553 19.833984 18.107422 L 19.833984 3.28125 C 19.833956 3.0051191 19.610115 2.7812776 19.333984 2.78125 L 1.5820312 2.78125 z M 2.0820312 3.78125 L 18.833984 3.78125 L 18.833984 16.210938 L 2.0820312 16.210938 L 2.0820312 3.78125 z M 10.513672 4.1152344 C 10.331054 4.1065087 10.148889 4.1379184 10.039062 4.2148438 C 9.5889553 4.5301117 9.7322632 5.4188702 10.283203 5.7285156 C 10.655727 5.9378863 10.677926 6.050306 10.396484 6.2949219 C 10.254695 6.4181587 10.069634 6.7007196 9.9296875 7.0078125 C 9.7092718 7.4914822 9.6767021 7.5297212 9.2402344 7.7851562 C 8.9876873 7.932955 8.7053854 8.135218 8.6132812 8.234375 C 8.3168003 8.5535582 8.0593271 8.6949055 7.6445312 8.7695312 C 7.2449246 8.8414237 7.2387196 8.8462927 7.2246094 9.0742188 C 7.2167294 9.2015017 7.2278879 9.2687102 7.2480469 9.2226562 C 7.2682073 9.1766043 7.3682171 9.1386719 7.4707031 9.1386719 C 7.5731899 9.1386719 7.7323097 9.0781534 7.8242188 9.0058594 C 8.0208269 8.8512083 9.3358297 8.2011719 9.4511719 8.2011719 C 9.4947807 8.2011719 9.5829875 8.2597065 9.6484375 8.3320312 C 9.7608671 8.456266 9.7615601 8.5163298 9.6660156 9.4121094 L 9.5664062 10.359375 L 8.9980469 10.9375 C 8.68574 11.255521 8.3326763 11.663132 8.2128906 11.841797 C 7.9552296 12.226109 7.4564926 13.271996 7.1074219 14.162109 C 6.9701656 14.512106 6.8087669 14.837859 6.7480469 14.886719 C 6.5567027 15.040682 6.1540792 14.941076 5.8945312 14.673828 C 5.6074968 14.378274 5.2770465 14.299589 4.9550781 14.453125 C 4.7015239 14.574037 4.4613192 14.915988 4.4609375 15.15625 C 4.4605481 15.400978 4.6599778 15.763964 4.8535156 15.869141 C 5.2398393 16.079084 5.7774105 15.934591 5.9667969 15.568359 C 6.0236293 15.458458 6.0891071 15.367188 6.1113281 15.367188 C 6.1335479 15.367187 6.2707364 15.47617 6.4160156 15.607422 C 6.72559 15.887103 6.8172964 15.851857 6.9277344 15.416016 C 6.9813383 15.20447 7.1115297 15.023126 7.4433594 14.697266 C 7.9481808 14.201526 8.0883766 13.963345 8.2402344 13.353516 C 8.4005983 12.70953 8.44301 12.641819 8.8417969 12.386719 C 9.2731313 12.110797 9.4872204 12.097862 9.8515625 12.322266 C 10.277101 12.584362 10.437411 12.548692 10.623047 12.152344 C 10.718258 11.949063 10.823515 11.818359 10.890625 11.818359 C 10.951437 11.818359 11.208611 11.982918 11.462891 12.185547 C 11.752254 12.416134 11.987828 12.553685 12.09375 12.552734 C 12.453779 12.549605 12.808487 12.297261 13.603516 11.472656 C 14.530067 10.511637 14.730095 10.3923 15.628906 10.273438 C 16.155146 10.203846 16.25 10.172599 16.25 10.068359 C 16.25 9.8689437 15.893024 9.7339887 15.357422 9.7304688 C 15.006467 9.7281906 14.820106 9.6922194 14.667969 9.5996094 C 14.396111 9.4341241 14.391184 9.4363333 14.339844 9.6914062 C 14.256994 10.103056 14.229712 10.139857 13.927734 10.273438 C 13.761183 10.347111 13.399728 10.550208 13.123047 10.722656 C 12.700664 10.98592 12.592899 11.025829 12.451172 10.974609 C 12.148822 10.865332 11.898456 10.418209 11.716797 9.6660156 C 11.505082 8.7893659 11.497127 8.3841133 11.685547 8.0332031 C 11.764373 7.886382 11.828125 7.6489174 11.828125 7.5039062 C 11.828125 7.1596293 11.965873 7.0162341 12.425781 6.8847656 C 12.816125 6.773183 13.033203 6.630204 13.033203 6.4863281 C 13.033203 6.4396022 12.956708 6.3086642 12.861328 6.1953125 C 12.691781 5.9938284 12.674271 5.9902344 12.095703 5.9902344 C 11.558338 5.9902344 11.484094 5.9742505 11.298828 5.8183594 L 11.095703 5.6464844 L 11.136719 5.0273438 C 11.177338 4.4089675 11.175556 4.4055406 10.990234 4.2597656 C 10.879012 4.1722788 10.696289 4.12396 10.513672 4.1152344 z M 3.328125 16.699219 C 3.332725 16.699177 3.3372269 16.699177 3.3417969 16.699219 C 3.7560099 16.699219 4.0917969 17.035006 4.0917969 17.449219 C 4.0917969 17.863432 3.7560099 18.199219 3.3417969 18.199219 C 2.9275829 18.199219 2.5917969 17.863433 2.5917969 17.449219 C 2.5917289 17.040286 2.91926 16.706674 3.328125 16.699219 z M 5.0253906 17.148438 L 6.8339844 17.148438 L 6.8339844 17.730469 L 5.0253906 17.730469 L 5.0253906 17.148438 z M 7.7871094 17.148438 L 9.59375 17.148438 L 9.59375 17.730469 L 7.7871094 17.730469 L 7.7871094 17.148438 z M 10.546875 17.148438 L 12.353516 17.148438 L 12.353516 17.730469 L 10.546875 17.730469 L 10.546875 17.148438 z M 13.306641 17.148438 L 15.115234 17.148438 L 15.115234 17.730469 L 13.306641 17.730469 L 13.306641 17.148438 z M 16.068359 17.148438 L 17.875 17.148438 L 17.875 17.730469 L 16.068359 17.730469 L 16.068359 17.148438 z " /></svg>
