<?xml version="1.0" encoding="UTF-8" standalone="no"?>
<svg
   xmlns:dc="http://purl.org/dc/elements/1.1/"
   xmlns:cc="http://creativecommons.org/ns#"
   xmlns:rdf="http://www.w3.org/1999/02/22-rdf-syntax-ns#"
   xmlns:svg="http://www.w3.org/2000/svg"
   xmlns="http://www.w3.org/2000/svg"
   xmlns:sodipodi="http://sodipodi.sourceforge.net/DTD/sodipodi-0.dtd"
   xmlns:inkscape="http://www.inkscape.org/namespaces/inkscape"
   version="1.1"
   id="Capa_1"
   x="0px"
   y="0px"
   viewBox="0 0 20.766 20.766"
   style="enable-background:new 0 0 20.766 20.766;"
   xml:space="preserve"
   sodipodi:docname="WiFi.svg"
   inkscape:version="1.0.1 (3bc2e813f5, 2020-09-07)"><metadata
   id="metadata47"><rdf:RDF><cc:Work
       rdf:about=""><dc:format>image/svg+xml</dc:format><dc:type
         rdf:resource="http://purl.org/dc/dcmitype/StillImage" /></cc:Work></rdf:RDF></metadata><defs
   id="defs45" /><sodipodi:namedview
   pagecolor="#ffffff"
   bordercolor="#666666"
   borderopacity="1"
   objecttolerance="10"
   gridtolerance="10"
   guidetolerance="10"
   inkscape:pageopacity="0"
   inkscape:pageshadow="2"
   inkscape:window-width="1920"
   inkscape:window-height="1016"
   id="namedview43"
   showgrid="false"
   inkscape:zoom="22.074032"
   inkscape:cx="12.40196"
   inkscape:cy="7.0986419"
   inkscape:window-x="0"
   inkscape:window-y="27"
   inkscape:window-maximized="1"
   inkscape:current-layer="Capa_1" />

<g
   id="g12">
</g>
<g
   id="g14">
</g>
<g
   id="g16">
</g>
<g
   id="g18">
</g>
<g
   id="g20">
</g>
<g
   id="g22">
</g>
<g
   id="g24">
</g>
<g
   id="g26">
</g>
<g
   id="g28">
</g>
<g
   id="g30">
</g>
<g
   id="g32">
</g>
<g
   id="g34">
</g>
<g
   id="g36">
</g>
<g
   id="g38">
</g>
<g
   id="g40">
</g>
<path
   style="fill:#1a3282;stroke-width:0.0141212;fill-opacity:1"
   d="M 10.240322,17.564581 C 10.182342,17.562681 10.026471,17.553771 9.8944,17.545191 8.4409271,17.450707 7.0002514,16.86094 5.8734051,15.899246 5.6771492,15.731763 5.1959577,15.247304 5.0719855,15.092537 c -0.049989,-0.06309 -0.099977,-0.118253 -0.1099752,-0.122642 -0.01,-0.004 -0.3786148,-0.008 -0.8190156,-0.009 -0.7033416,-9.9e-4 -0.9306905,-0.008 -1.0973529,-0.03399 C 2.7044185,14.873816 2.4469764,14.792305 2.1277484,14.63644 1.2753403,14.220223 0.64598203,13.405457 0.46992157,12.490393 0.40393637,12.14891 0.40493617,12.171435 0.40493617,10.689958 c 0,-0.7766643 0,-1.4670594 0.009998,-1.5342043 C 0.47991933,7.7048904 1.5889696,6.4785864 3.0359438,6.2563565 3.2181028,6.2283628 3.4429523,6.2212643 4.1655896,6.2206646 L 4.9705083,6.2199847 5.0694863,6.0970324 C 5.1996568,5.9350388 5.7238388,5.4095371 5.9025985,5.2617104 6.3679937,4.876927 6.8017961,4.5927511 7.3071823,4.3416775 8.4817179,3.7581689 9.742034,3.5281907 11.09463,3.6505432 c 0.415507,0.037592 0.794921,0.1110049 1.268415,0.2454547 0.917994,0.2606713 1.856682,0.7715563 2.597715,1.4137917 0.239246,0.2073333 0.547376,0.5171935 0.741234,0.7454122 l 0.140467,0.1654227 0.798521,8.099e-4 c 0.439201,4.499e-4 0.824014,0.003 0.855107,0.00601 0.03099,0.003 0.100981,0.01 0.155266,0.014796 0.05399,0.00499 0.108374,0.011197 0.120072,0.013496 0.012,0.002 0.06199,0.011397 0.112975,0.020395 0.267039,0.047689 0.515383,0.1315105 0.79782,0.2694395 0.48529,0.2369665 0.876902,0.5788096 1.19663,1.0445947 0.26804,0.3905622 0.424105,0.8099377 0.507086,1.3626933 0.01499,0.1002169 0.019,0.4256841 0.019,1.5392041 0,0.776655 0,1.469299 -0.01001,1.539194 -0.011,0.260911 -0.06598,0.555365 -0.149167,0.804168 -0.371316,1.109661 -1.322001,1.913649 -2.471842,2.09023 -0.18236,0.02798 -0.407109,0.03509 -1.130747,0.0354 l -0.806019,3.59e-4 -0.13307,0.158235 c -0.17446,0.207553 -0.511284,0.546767 -0.737634,0.742983 -1.069459,0.926952 -2.393761,1.506201 -3.799144,1.661825 -0.167262,0.0185 -0.793022,0.05418 -0.814018,0.04639 0,-0.001 -0.05498,-0.004 -0.112973,-0.006 z m 7.28656,-3.450633 c 0.281637,-0.02909 0.517984,-0.09498 0.755431,-0.210572 0.676548,-0.329346 1.144842,-0.960814 1.257317,-1.695459 0.03099,-0.205164 0.03,-3.0302482 0,-3.2427404 -0.05599,-0.3742757 -0.220852,-0.7482115 -0.465796,-1.0539428 -0.348222,-0.434682 -0.807519,-0.7097301 -1.37639,-0.8243043 -0.109575,-0.022095 -0.31273,-0.024594 -2.315878,-0.029494 -2.302183,-0.00601 -2.584419,-2.7e-4 -2.845461,0.053688 -0.524881,0.1084556 -0.8839,0.3719063 -1.134144,0.8322427 -0.122972,0.2262091 -0.243245,0.6230698 -0.291034,0.9602338 -0.06099,0.4274237 -0.06699,0.5689619 -0.07898,1.828688 -0.01001,0.675698 -0.019,1.307966 -0.027,1.405054 -0.04899,0.556305 -0.13027,0.905526 -0.283135,1.221435 -0.190757,0.394201 -0.518384,0.648435 -0.946588,0.734394 -0.06599,0.0133 -0.122673,0.0266 -0.125972,0.02969 -0.014,0.01299 7.751155,0.0041 7.878528,-0.009 z M 12.386739,10.73226 V 8.55055 h 1.892275 1.892173 v 0.5012171 0.5012272 l -1.28851,0.00399 -1.28851,0.004 v 0.5154237 0.515424 l 1.175536,0.004 1.175635,0.004 v 0.487091 0.487089 h -1.179134 -1.179135 v 0.670761 0.670749 h -0.600164 -0.600166 z m 4.434102,0.5719 V 9.6943527 h 0.557774 0.557775 v 1.6098073 1.609808 h -0.557775 -0.557774 z m 0.343823,-1.9122795 c -0.192756,-0.046689 -0.342323,-0.1629132 -0.424805,-0.3298157 -0.04799,-0.097678 -0.05299,-0.1180334 -0.05299,-0.2213001 1.99e-4,-0.098278 0.01001,-0.1267416 0.04599,-0.2099428 0.08098,-0.1717814 0.238346,-0.292774 0.4438,-0.3412231 0.30963,-0.072985 0.634557,0.067384 0.763828,0.3299956 0.041,0.083781 0.04599,0.1050864 0.04599,0.2201405 0,0.1104551 -0.01001,0.1390386 -0.03999,0.2151015 -0.121472,0.2628908 -0.468594,0.4127571 -0.780624,0.3370441 z M 4.4930158,11.643684 c 0.1514659,-0.698553 0.2791373,-1.265645 0.2837361,-1.260216 0,0.005 0.1126748,0.577 0.2400461,1.270134 l 0.2317477,1.260246 0.5744708,6e-5 c 0.5347796,6e-5 0.5750704,-0.002 0.5821688,-0.0247 0.012997,-0.04139 1.053363,-4.3438827 1.053363,-4.35582 0,-0.00601 -0.2757379,-0.011097 -0.6127621,-0.011097 h -0.612762 l -0.01,0.031794 c 0,0.017496 -0.091979,0.5834186 -0.1954561,1.2576667 C 5.9236928,10.489457 5.8352127,11.026197 5.8298139,11.01205 5.8198139,10.99796 5.7107407,10.432011 5.5771708,9.7543737 L 5.3343265,8.5223163 H 4.7727528 4.2111792 l -0.01,0.031793 c 0,0.017496 -0.1195729,0.5591941 -0.2563423,1.2038184 -0.1367678,0.6446353 -0.2533416,1.1835843 -0.2589403,1.1976713 -0.01,0.01409 -0.077982,-0.53171 -0.1614637,-1.2129083 C 3.4414529,9.0615049 3.3701686,8.5010611 3.3663696,8.497252 c -0.01,-0.010397 -1.2337224,0.017696 -1.24462,0.028594 -0.01,0.007 0.9879777,4.277677 1.0182709,4.370556 0,0.0137 0.1248718,0.0176 0.5392786,0.0176 l 0.5334798,-10e-5 z M 9.13887,11.30416 V 9.6943527 H 8.5810955 8.023321 V 11.30416 12.913968 H 8.5810955 9.13887 Z M 8.7275626,9.3914207 C 8.9110213,9.3425317 9.0729847,9.21634 9.1478679,9.0637645 c 0.035991,-0.074084 0.040991,-0.096878 0.040991,-0.2237398 0,-0.1279811 0,-0.1488163 -0.040991,-0.2224698 C 9.098879,8.5203768 8.9753068,8.3984743 8.8743296,8.3473157 8.5293072,8.1724751 8.0937052,8.2983268 7.9361407,8.6184347 c -0.041991,0.085281 -0.04599,0.1056862 -0.04599,0.2213002 1.999e-4,0.1082556 0.01,0.1395785 0.037992,0.2086129 0.071984,0.1544854 0.2202505,0.2775876 0.4058087,0.3369643 0.096977,0.031093 0.2893348,0.033993 0.3943112,0.00601 z"
   id="path886" /></svg>
