<?xml version="1.0" encoding="UTF-8" standalone="no"?>
<svg
   xmlns:dc="http://purl.org/dc/elements/1.1/"
   xmlns:cc="http://creativecommons.org/ns#"
   xmlns:rdf="http://www.w3.org/1999/02/22-rdf-syntax-ns#"
   xmlns:svg="http://www.w3.org/2000/svg"
   xmlns="http://www.w3.org/2000/svg"
   xmlns:sodipodi="http://sodipodi.sourceforge.net/DTD/sodipodi-0.dtd"
   xmlns:inkscape="http://www.inkscape.org/namespaces/inkscape"
   version="1.1"
   id="svg2"
   xml:space="preserve"
   width="512"
   height="131.937"
   viewBox="0 0 512 131.937"
   sodipodi:docname="OzlemLogo_512.svg"
   inkscape:version="1.0.2 (e86c870879, 2021-01-15)"><metadata
     id="metadata8"><rdf:RDF><cc:Work
         rdf:about=""><dc:format>image/svg+xml</dc:format><dc:type
           rdf:resource="http://purl.org/dc/dcmitype/StillImage" /><dc:title></dc:title></cc:Work></rdf:RDF></metadata><defs
     id="defs6"><clipPath
       clipPathUnits="userSpaceOnUse"
       id="clipPath82"><path
         d="M 0,566.929 H 850.394 V 0 H 0 Z"
         id="path80" /></clipPath></defs><sodipodi:namedview
     pagecolor="#ffffff"
     bordercolor="#666666"
     borderopacity="1"
     objecttolerance="10"
     gridtolerance="10"
     guidetolerance="10"
     inkscape:pageopacity="0"
     inkscape:pageshadow="2"
     inkscape:window-width="1920"
     inkscape:window-height="1031"
     id="namedview4"
     showgrid="false"
     inkscape:zoom="1.7619464"
     inkscape:cx="181.25164"
     inkscape:cy="100.43703"
     inkscape:window-x="0"
     inkscape:window-y="0"
     inkscape:window-maximized="1"
     inkscape:current-layer="g10"
     inkscape:document-rotation="0" /><g
     id="g10"
     inkscape:groupmode="layer"
     inkscape:label="OzlemLogo"
     transform="matrix(1.3333333,0,0,-1.3333333,0,755.90533)"><g
       id="g117"
       transform="matrix(0.73846307,0,0,0.73846307,12.000002,136.27288)"><g
         id="g515"
         transform="matrix(1.0012361,0,0,1.0012361,-221.32114,244.09685)"><g
           id="g168"
           transform="translate(280.8184,269.7227)"><path
             d="m 0,0 c -21.492,4.389 -38.244,17.002 -46.592,25.846 -0.003,0.002 -5.168,5.164 -10.161,12.342 0,0 3.91,-8.133 8.596,-14.215 -3.596,-6.448 -5.734,-14.035 -5.734,-21.94 0,-24.75 20.058,-44.806 44.804,-44.806 23.878,0 43.392,18.677 44.728,42.226 C 25.486,-2.252 14.788,-3.021 0,0"
             style="fill:#1a3282;fill-opacity:1;fill-rule:nonzero;stroke:none"
             id="path170" /></g><g
           id="g172"
           transform="translate(271.7349,322.4336)"><path
             d="m 0,0 c -8.764,0 -17.008,-2.242 -24.202,-6.172 l 2.708,-2.949 c 6.439,3.351 13.749,5.25 21.494,5.25 25.812,0 46.813,-20.996 46.813,-46.807 C 46.813,-76.496 25.812,-97.5 0,-97.5 c -25.811,0 -46.814,21.004 -46.814,46.822 0,7.157 1.625,13.94 4.509,20.014 l -2.491,3.68 c -3.759,-7.079 -5.891,-15.147 -5.891,-23.694 0,-27.955 22.738,-50.695 50.687,-50.695 27.946,0 50.689,22.74 50.689,50.695 C 50.689,-22.736 27.946,0 0,0"
             style="fill:#0095da;fill-opacity:1;fill-rule:nonzero;stroke:none"
             id="path174" /></g><g
           id="g176"
           transform="translate(271.7314,316.5488)"><path
             d="m 0,0 c -8.389,0 -16.237,-2.309 -22.949,-6.318 0,0 -2.444,2.58 -3.474,3.732 -3.606,4.082 -6.265,7.953 -6.265,7.953 C -26.13,-7.859 -14.455,-23.066 4.822,-33.67 25.093,-44.822 44.803,-44.793 44.803,-44.793 44.803,-20.057 24.744,0 0,0"
             style="fill:#1a3282;fill-opacity:1;fill-rule:nonzero;stroke:none"
             id="path178" /></g><g
           id="g180"
           transform="translate(274.7891,271.207)"><path
             d="m 0,0 c -1.319,0.377 -2.622,0.773 -3.897,1.205 -15.315,-1.418 -29.543,-6.578 -41.762,-14.559 0.802,-2.462 1.82,-4.83 3.018,-7.085 C -30.679,-10.232 -16.077,-3.029 0,0"
             style="fill:#ffffff;fill-opacity:1;fill-rule:nonzero;stroke:none"
             id="path182" /></g><g
           id="g184"
           transform="translate(239.1426,256.1836)"><path
             d="M 0,0 C 0.002,0 0.003,0 0.005,0.002 0.003,0 0.002,0 0,0"
             style="fill:#1a3282;fill-opacity:1;fill-rule:nonzero;stroke:none"
             id="path186" /></g><g
           id="g188"
           transform="translate(241.561,257.8164)"><path
             d="M 0,0 C 0.017,0.014 0.035,0.023 0.053,0.037 0.035,0.023 0.017,0.014 0,0"
             style="fill:#1a3282;fill-opacity:1;fill-rule:nonzero;stroke:none"
             id="path190" /></g><g
           id="g192"
           transform="translate(234.3936,252.623)"><path
             d="M 0,0 C 0.016,0.014 0.03,0.025 0.044,0.037 0.03,0.025 0.016,0.014 0,0"
             style="fill:#1a3282;fill-opacity:1;fill-rule:nonzero;stroke:none"
             id="path194" /></g><g
           id="g196"
           transform="translate(257.3716,266.0937)"><path
             d="M 0,0 C 0.002,0 0.004,0 0.005,0.002 0.004,0 0.002,0 0,0"
             style="fill:#1a3282;fill-opacity:1;fill-rule:nonzero;stroke:none"
             id="path198" /></g><g
           id="g200"
           transform="translate(249.2368,262.3242)"><path
             d="M 0,0 C 0.013,0.008 0.025,0.014 0.037,0.021 0.025,0.014 0.013,0.008 0,0"
             style="fill:#1a3282;fill-opacity:1;fill-rule:nonzero;stroke:none"
             id="path202" /></g><g
           id="g204"
           transform="translate(229.1299,257.8535)"><path
             d="M 0,0 C 0.021,-0.064 0.046,-0.129 0.069,-0.195 0.046,-0.129 0.024,-0.064 0.002,0.002 0.002,0.002 0.001,0 0,0"
             style="fill:#1a3282;fill-opacity:1;fill-rule:nonzero;stroke:none"
             id="path206" /></g><g
           id="g208"
           transform="translate(274.7695,271.2051)"><path
             d="M 0,0 C 0.003,0 0.007,0 0.009,0.002 0.007,0.002 0.002,0 -0.001,0 Z"
             style="fill:#1a3282;fill-opacity:1;fill-rule:nonzero;stroke:none"
             id="path210" /></g><g
           id="g212"
           transform="translate(232.1553,250.7754)"><path
             d="M 0,0 V 0 C 0.735,0.627 1.482,1.244 2.238,1.848 1.482,1.244 0.735,0.627 0,0"
             style="fill:#1a3282;fill-opacity:1;fill-rule:nonzero;stroke:none"
             id="path214" /></g><g
           id="g216"
           transform="translate(234.438,252.6602)"><path
             d="M 0,0 C 1.529,1.223 3.098,2.396 4.705,3.523 3.098,2.396 1.529,1.223 0,0"
             style="fill:#1a3282;fill-opacity:1;fill-rule:nonzero;stroke:none"
             id="path218" /></g><g
           id="g220"
           transform="translate(241.6138,257.8535)"><path
             d="M 0,0 C 2.462,1.607 5.005,3.1 7.623,4.471 5.005,3.1 2.462,1.607 0,0"
             style="fill:#1a3282;fill-opacity:1;fill-rule:nonzero;stroke:none"
             id="path222" /></g><g
           id="g224"
           transform="translate(249.2739,262.3457)"><path
             d="M 0,0 C 2.627,1.375 5.33,2.627 8.098,3.748 5.33,2.627 2.627,1.375 0,0"
             style="fill:#1a3282;fill-opacity:1;fill-rule:nonzero;stroke:none"
             id="path226" /></g><g
           id="g228"
           transform="translate(257.3765,266.0957)"><path
             d="M 0,0 C 5.55,2.248 11.367,3.971 17.393,5.109 H 17.392 C 11.367,3.971 5.55,2.248 0,0"
             style="fill:#1a3282;fill-opacity:1;fill-rule:nonzero;stroke:none"
             id="path230" /></g><g
           id="g232"
           transform="translate(239.1475,256.1855)"><path
             d="M 0,0 C 0.795,0.555 1.6,1.1 2.414,1.631 1.6,1.1 0.795,0.555 0,0"
             style="fill:#1a3282;fill-opacity:1;fill-rule:nonzero;stroke:none"
             id="path234" /></g><g
           id="g236"
           transform="translate(232.1553,250.7754)"><path
             d="M 0,0 C -0.002,-0.002 -0.004,-0.006 -0.006,-0.008 -0.004,-0.006 -0.002,-0.002 0,0"
             style="fill:#1a3282;fill-opacity:1;fill-rule:nonzero;stroke:none"
             id="path238" /></g><g
           id="g240"
           transform="translate(257.3716,266.0937)"><path
             d="m 0,0 c -2.768,-1.121 -5.47,-2.373 -8.098,-3.748 -0.011,-0.008 -0.024,-0.014 -0.037,-0.022 -2.618,-1.371 -5.161,-2.863 -7.623,-4.47 -0.018,-0.014 -0.035,-0.024 -0.053,-0.037 -0.814,-0.532 -1.618,-1.077 -2.413,-1.631 -0.002,-0.002 -0.003,-0.002 -0.005,-0.002 -1.606,-1.127 -3.176,-2.301 -4.705,-3.524 -0.014,-0.011 -0.028,-0.023 -0.044,-0.037 -0.756,-0.603 -1.503,-1.22 -2.238,-1.847 4.718,-8.885 12.326,-16 21.587,-20.065 C 8.736,-17.309 27.364,-3.861 49.13,1.834 41.721,1.273 33.537,1.566 23.447,3.629 21.385,4.051 19.369,4.549 17.398,5.111 11.372,3.973 5.555,2.25 0.005,0.002 0.004,0 0.002,0 0,0"
             style="fill:#0095da;fill-opacity:1;fill-rule:nonzero;stroke:none"
             id="path242" /></g></g><g
         id="g531"
         transform="matrix(1.0012361,0,0,1.0012361,-221.32114,244.09685)"><g
           id="g244"
           transform="translate(395.2593,260.502)"><path
             d="m 0,0 c -2.739,-12.904 -9.123,-19.354 -19.156,-19.354 -10.031,0 -13.669,6.493 -10.91,19.479 1.4,6.603 3.708,11.435 6.922,14.498 3.217,3.069 7.274,4.604 12.178,4.604 4.902,0 8.312,-1.535 10.223,-4.604 C 1.17,11.56 1.421,6.687 0,0 m 20.541,18.15 c -2.062,4.975 -5.632,8.728 -10.711,11.264 -5.08,2.537 -11.493,3.803 -19.243,3.803 -7.71,0 -14.467,-1.104 -20.342,-4.059 -5.781,-2.91 -10.778,-6.721 -14.55,-11.697 -3.771,-4.977 -6.421,-10.391 -7.63,-17.508 -1.201,-7.072 -0.716,-13.129 1.457,-18.163 2.172,-5.033 5.814,-8.848 10.923,-11.443 5.108,-2.593 11.377,-3.889 18.804,-3.889 7.426,0 14.126,1.306 20.102,3.917 5.973,2.616 10.912,6.441 14.815,11.475 3.899,5.031 6.449,11.068 7.644,18.103 1.215,7.155 0.793,13.22 -1.269,18.197"
             style="fill:#1a3282;fill-opacity:1;fill-rule:nonzero;stroke:none"
             id="path246" /></g><g
           id="g248"
           transform="translate(489.6274,292.0254)"><path
             d="m 0,0 h -59.37 l -3.376,-15.351 h 31.987 l -42.629,-37.44 -2.26,-10.26 h 63.226 l 2.662,14.34 H -45.005 L -3.452,-12.4 Z"
             style="fill:#1a3282;fill-opacity:1;fill-rule:nonzero;stroke:none"
             id="path250" /></g><g
           id="g252"
           transform="translate(504.4717,316.6035)"><path
             d="M 0,0 -19.526,-87.629 H 1.682 L 21.208,0 Z"
             style="fill:#1a3282;fill-opacity:1;fill-rule:nonzero;stroke:none"
             id="path254" /></g><g
           id="g256"
           transform="translate(556.3403,266.0215)"><path
             d="m 0,0 c -3.273,-0.322 -13.703,-0.067 -13.703,-0.067 1.313,5.346 3.935,9.338 6.758,11.848 2.82,2.516 6.494,3.768 11.018,3.768 4.482,0 7.591,-1.264 9.331,-3.797 C 15.14,9.223 15.759,1.532 0,0 m 24.429,24.023 c -4.368,2.731 -10.095,3.78 -17.251,3.78 -7.483,0 -14.03,-1.507 -19.893,-4.199 -5.862,-2.694 -10.708,-6.586 -14.535,-11.668 -3.831,-5.087 -6.731,-10.666 -8.181,-17.747 -2.116,-10.328 1.505,-21.259 7.567,-26.128 6.118,-4.914 12.587,-7.133 26.856,-7.133 7.442,0 18.133,1.066 25.43,4.294 l -1.105,13.577 C 17.2,-23.48 11.403,-24.836 5.566,-24.836 c -5.797,0 -10.295,0.455 -13.489,1.377 -3.196,0.92 -5.367,2.344 -6.515,4.282 -1.145,1.932 -1.486,4.555 -1.02,7.865 0,0 9.427,-0.54 15.59,-0.547 8.742,-0.006 17.849,1.827 24.239,5.259 7.708,4.135 10.409,11.597 8.736,18.775 -1.216,5.214 -4.311,9.113 -8.678,11.848"
             style="fill:#1a3282;fill-opacity:1;fill-rule:nonzero;stroke:none"
             id="path258" /></g><g
           id="g260"
           transform="translate(690.9531,293.6143)"><path
             d="m 0,0 c -4.087,0 -9.578,-0.338 -13.623,-2.146 -4.485,-2.004 -9.692,-6.246 -13.682,-9.194 -1.462,2.869 -4.484,11.117 -17.935,11.115 -4.437,0 -11.081,-1.258 -15.304,-3.301 -4.995,-2.42 -11.373,-7.984 -11.373,-7.984 l 1.463,9.921 h -18.295 l -13.183,-63.051 h 20.363 l 5.912,28.189 c 2.963,15.267 11.231,20.448 14.821,21.388 13.157,3.455 12.638,-9.346 11.699,-13.674 l -7.582,-35.903 h 19.569 c 0,0 6.027,28.142 6.457,29.904 2.947,12.089 10.242,20.915 19.419,20.366 8.173,-0.494 7.29,-7.59 5.455,-17.432 L -12.751,-64.64 H 7.337 l 8.022,36.85 C 20.417,-9.094 13.297,0 0,0"
             style="fill:#1a3282;fill-opacity:1;fill-rule:nonzero;stroke:none"
             id="path262" /></g><g
           id="g264"
           transform="translate(416.5659,292.4199)"><path
             d="M 0,0 -53.875,14.984 3.467,15.645 Z"
             style="fill:#0095da;fill-opacity:1;fill-rule:nonzero;stroke:none"
             id="path266" /></g><g
           id="g276"
           transform="translate(573.0479,226.9492)"><path
             d="M 0,0 V 0"
             style="fill:none;stroke:#231f20;stroke-width:0.718;stroke-linecap:round;stroke-linejoin:round;stroke-miterlimit:4;stroke-dasharray:none;stroke-opacity:1"
             id="path278" /></g></g></g></g></svg>
